<svg width="46" height="46" fill="none" xmlns="http://www.w3.org/2000/svg"><path d="M12.453 8.234a4.223 4.223 0 0 0-4.219-4.218 4.223 4.223 0 0 0-4.218 4.218 4.223 4.223 0 0 0 4.218 4.22 4.223 4.223 0 0 0 4.22-4.22Zm-7.031 0a2.815 2.815 0 0 1 2.812-2.812 2.815 2.815 0 0 1 2.813 2.812 2.815 2.815 0 0 1-2.813 2.813 2.815 2.815 0 0 1-2.812-2.813Zm33.66-2.311.994-.994.995.994-.995.994-.994-.994Zm-1.989 1.988.994-.994.995.994-.995.995-.994-.995ZM35.155 9.85l.944-.945.995.995-.945.944-.994-.994Z" fill="#4D7B7D"/><path d="M42.688 30.734h-3.9A17.596 17.596 0 0 0 40.577 23c0-3.572-1.066-6.974-3.066-9.897.53-.37 1.049-.76 1.553-1.168l4.326 4.325 1.507-1.508-2.11-6.329.226-.225a3.657 3.657 0 0 0 1.08-2.606 3.69 3.69 0 0 0-3.687-3.686c-.983 0-1.91.383-2.606 1.079l-.227.226-6.327-2.11L29.74 2.61l4.326 4.326c-.41.503-.798 1.022-1.168 1.552A17.42 17.42 0 0 0 23 5.422c-2.718 0-5.396.63-7.811 1.829-.481-3.412-3.412-6.048-6.955-6.048a7.04 7.04 0 0 0-7.03 7.031v.194a7.01 7.01 0 0 0 1.18 3.9l3.774 5.66A17.551 17.551 0 0 0 5.422 23c0 2.19.397 4.314 1.176 6.328h-.473c-1.163 0-2.11.947-2.11 2.11 0 .915.59 1.688 1.407 1.98v1.535H1.203v2.355c0 4.13 3.36 7.489 7.49 7.489h7.782c2.89 0 5.5-1.686 6.737-4.225a17.437 17.437 0 0 0 6.117-1.17v3.285c0 1.163.946 2.11 2.11 2.11h11.25a2.113 2.113 0 0 0 2.109-2.11v-9.843a2.114 2.114 0 0 0-2.11-2.11Zm-7.735 1.407h4.219v1.406h-4.219V32.14Zm-3.516-1.407h-2.099c.407-2.126.648-4.503.686-7.03h9.125a16.147 16.147 0 0 1-1.953 7.03h-5.758Zm-7.756 8.296.022-1.264h-3.081L18.38 33.28c.451-.247.8-.65.975-1.14h8.234c-.95 3.788-2.43 6.29-3.908 6.89Zm-4.326-8.296a2.109 2.109 0 0 0-1.494-1.344 40.744 40.744 0 0 1-.472-5.687h11.229c-.04 2.6-.301 4.969-.713 7.031h-8.55Zm-12.5-8.437c.044-1.035.176-2.06.415-3.06a2.015 2.015 0 0 0 2.643-.65l2.213-3.321h4.536c-.407 2.126-.648 4.502-.686 7.03H6.855Zm11.244-7.031h9.81c.427 2.15.665 4.543.703 7.03H17.388c.041-2.598.298-4.97.711-7.03ZM23 6.828c1.25 0 2.535 1.415 3.566 3.877l-.534.534.917.459c.239.678.456 1.398.647 2.161h-9.181C19.514 9.492 21.317 6.83 23 6.83Zm7.79 5.219-2.384-1.193.435-.434 2.47.617c-.18.332-.352.67-.52 1.01Zm-.59 1.276-.018.038c-.069.16-.105.328-.127.498h-1.017c-.104-.44-.217-.867-.336-1.284l1.498.748Zm8.945 8.974h-9.126c-.038-2.474-.269-4.86-.681-7.031h1.114a1.858 1.858 0 0 0 2.186.552l.038-.018 2.084 4.168 2.378-2.378-.91-3.64c.038-.023.074-.048.112-.072a16.002 16.002 0 0 1 2.804 8.419Zm-4.182-7.609.617 2.471-.435.435-1.192-2.385c.34-.168.678-.34 1.01-.52Zm8.225-.62-3.05-3.05a25.97 25.97 0 0 0 1.038-.982l.5-.5 1.512 4.533Zm-2.78-10.756a2.282 2.282 0 0 1 2.28 2.28c0 .61-.238 1.182-.669 1.612l-1.837 1.837a25.758 25.758 0 0 1-8.097 5.483.475.475 0 0 1-.648-.425.47.47 0 0 1 .038-.183 25.77 25.77 0 0 1 5.483-8.099l1.836-1.837a2.268 2.268 0 0 1 1.613-.668Zm-8.476-.5 4.532 1.51-.5.501c-.338.339-.664.686-.983 1.039l-3.05-3.05Zm.117 6.96-3.64-.91-.771.772c-.462-1.004-.973-1.842-1.524-2.497a15.969 15.969 0 0 1 6.008 2.522c-.024.039-.05.075-.073.113Zm-16.812-.953a16.113 16.113 0 0 1 4.694-1.695c-1.24 1.47-2.27 3.814-2.967 6.735h-3.9l1.02-1.531a6.997 6.997 0 0 0 1.153-3.51ZM2.609 8.428v-.194A5.632 5.632 0 0 1 8.234 2.61a5.632 5.632 0 0 1 5.625 5.625v.194a5.609 5.609 0 0 1-.945 3.12l-4.172 6.258c-.227.34-.789.34-1.016 0l-4.172-6.258a5.612 5.612 0 0 1-.945-3.12Zm4.237 15.275h9.137c.03 1.945.18 3.83.448 5.625H8.119a16.017 16.017 0 0 1-1.273-5.625Zm-.721 7.031h11.25a.704.704 0 0 1 0 1.407H6.125a.704.704 0 0 1 0-1.407Zm.703 2.813h10.113l2.109 4.219H9.372l-1.406-2.813H6.828v-1.406Zm9.647 9.844H8.692a6.09 6.09 0 0 1-6.083-6.083v-.949h4.488l1.406 2.813h13.762a6.11 6.11 0 0 1-5.79 4.219Zm9.593-4.514c1.24-1.47 2.27-3.816 2.968-6.736h.421c-.078.22-.129.455-.129.703v5.036a15.92 15.92 0 0 1-3.26.996Zm17.323 3.81a.704.704 0 0 1-.703.704h-11.25a.704.704 0 0 1-.704-.704v-9.843c0-.388.316-.703.703-.703h2.11v2.812h7.031v-2.812h2.11c.387 0 .703.315.703.703v9.843Z" fill="#4D7B7D"/><path d="M40.578 40.578h1.406v1.406h-1.406v-1.406Zm-2.812 0h1.406v1.406h-1.406v-1.406Zm-25.313-5.625h1.406v1.406h-1.406v-1.406Zm2.813 0h1.406v1.406h-1.406v-1.406Zm-5.626 0h1.407v1.406H9.64v-1.406Zm9.844-9.843h1.407v1.406h-1.407v-1.407Zm5.626 0h1.406v1.406h-1.407v-1.407Zm-2.813 0h1.406v1.406h-1.406v-1.407Zm2.813-5.626h1.406v1.407h-1.407v-1.407Zm-2.813 0h1.406v1.407h-1.406v-1.407Zm-2.813 0h1.407v1.407h-1.407v-1.407Z" fill="#4D7B7D"/></svg>