<svg width="46" height="46" fill="none" xmlns="http://www.w3.org/2000/svg"><g clip-path="url(#a)" fill="#4D7B7D"><path d="M44.6 16.7H41V2.3A1.8 1.8 0 0 0 39.2.5H6.8A1.8 1.8 0 0 0 5 2.3v14.4H1.4a.9.9 0 0 0-.9.9v7.2a.9.9 0 0 0 .9.9H5v8.1c0 .242.098.473.272.642-.177.36-.27.756-.272 1.158v1.8a2.703 2.703 0 0 0 2.7 2.7v2.7a2.703 2.703 0 0 0 2.7 2.7H14a2.703 2.703 0 0 0 2.7-2.7v-2.7h12.6v2.7a2.703 2.703 0 0 0 2.7 2.7h3.6a2.703 2.703 0 0 0 2.7-2.7v-2.7a2.703 2.703 0 0 0 2.7-2.7v-1.8a2.673 2.673 0 0 0-.271-1.158A.895.895 0 0 0 41 33.8v-8.1h3.6a.9.9 0 0 0 .9-.9v-7.2a.9.9 0 0 0-.9-.9Zm-6.3 16.2v-5.818l.9-.6V32.9h-.9Zm-25.2 0v-2.7a.9.9 0 0 0-.264-.636l-1.8-1.8a.9.9 0 0 0-.636-.264h-.9V12.2a2.703 2.703 0 0 1 2.7-2.7h21.6a2.703 2.703 0 0 1 2.7 2.7v15.3h-.9a.9.9 0 0 0-.636.264l-1.8 1.8a.9.9 0 0 0-.264.636v2.7H13.1Zm-6.3 0v-6.418l.9.6V32.9h-.9Zm2.7-3.6h.527l1.273 1.273V32.9H9.5v-3.6Zm25.2 1.273 1.273-1.273h.527v3.6h-1.8v-2.327ZM6.8 2.3h32.4v22.018l-.9.6V12.2a4.505 4.505 0 0 0-4.5-4.5H12.2a4.505 4.505 0 0 0-4.5 4.5v12.718l-.9-.6V2.3ZM2.3 23.9v-5.4H5v5.4H2.3Zm12.6 18.9a.9.9 0 0 1-.9.9h-3.6a.901.901 0 0 1-.9-.9v-2.7h5.4v2.7Zm21.6 0a.9.9 0 0 1-.9.9H32a.901.901 0 0 1-.9-.9v-2.7h5.4v2.7Zm2.7-5.4a.9.9 0 0 1-.9.9H7.7a.901.901 0 0 1-.9-.9v-1.8a.9.9 0 0 1 .9-.9h30.6a.9.9 0 0 1 .9.9v1.8Zm4.5-13.5H41v-5.4h2.7v5.4Z"/><path d="M15.479 25.7H30.52a.901.901 0 0 0 .356-.073l4.179-1.8A.9.9 0 0 0 35.6 23v-9.9a1.77 1.77 0 0 0-1.736-1.8H12.136a1.77 1.77 0 0 0-1.736 1.8V23a.9.9 0 0 0 .544.827l4.179 1.8a.902.902 0 0 0 .356.073Zm-3.343-12.6H33.8v9.308L30.336 23.9h-2.764l.514-.9h2.564a.9.9 0 1 0 0-1.8h-5.4a.9.9 0 1 0 0 1.8h.763l-.514.9h-6.927l.514-.9h2.564a.9.9 0 1 0 0-1.8h-5.4a.9.9 0 1 0 0 1.8h.763l-.514.9h-.835l-3.468-1.494-.06-9.306ZM20.3 35.6h-3.6a.9.9 0 0 0 0 1.8h3.6a.9.9 0 0 0 0-1.8Zm9 0h-3.6a.9.9 0 0 0 0 1.8h3.6a.9.9 0 0 0 0-1.8Zm.9-5.4H15.8a.9.9 0 0 0 0 1.8h14.4a.9.9 0 0 0 0-1.8Zm0-2.7H15.8a.9.9 0 0 0 0 1.8h14.4a.9.9 0 0 0 0-1.8Z"/></g><defs><clipPath id="a"><path fill="#fff" transform="translate(.5 .5)" d="M0 0h45v45H0z"/></clipPath></defs></svg>