<svg width="46" height="46" fill="none" xmlns="http://www.w3.org/2000/svg"><g clip-path="url(#a)" fill="#4D7B7D"><path d="M12.895 10.194a.66.66 0 0 0-.66.66v3.361a.66.66 0 0 0 1.319 0v-3.362a.66.66 0 0 0-.66-.659Zm7.579 0a.66.66 0 0 0-.66.66v.702a.66.66 0 0 0 1.319 0v-.703a.66.66 0 0 0-.66-.659Zm-2.527 0a.66.66 0 0 0-.659.66v1.589a.66.66 0 0 0 1.319 0v-1.59a.66.66 0 0 0-.66-.659Zm-2.526 0a.66.66 0 0 0-.659.66v2.475a.66.66 0 1 0 1.318 0v-2.476a.66.66 0 0 0-.659-.659Zm17.025.659v3.362a.66.66 0 1 0 1.318 0v-3.362a.66.66 0 1 0-1.318 0Zm-7.579 0v.703a.66.66 0 0 0 1.319 0v-.703a.66.66 0 1 0-1.319 0Zm2.526 0v1.59a.66.66 0 1 0 1.319 0v-1.59a.66.66 0 1 0-1.319 0Zm2.527 0v2.476a.66.66 0 0 0 1.318 0v-2.476a.66.66 0 1 0-1.318 0Z"/><path d="M43.911 29.72a3.38 3.38 0 0 1-4.743 0 1.89 1.89 0 0 0-2.672 0 3.36 3.36 0 0 1-1.781.92l3.415-10.113a1.45 1.45 0 0 0-.786-1.795l-1.053-.47v-3.556a.66.66 0 1 0-1.319 0v2.968l-8.867-3.956-2.355-1.05a1.951 1.951 0 0 0-.09-.038V8.568h11.02c.161 0 .292.131.292.293v2.769a.66.66 0 1 0 1.319 0V8.86c0-.888-.723-1.611-1.612-1.611h-1.673V2.473A1.975 1.975 0 0 0 31.033.5H14.809a1.975 1.975 0 0 0-1.973 1.973V7.25h-1.515c-.889 0-1.612.723-1.612 1.611v9.401l-1.052.47a1.45 1.45 0 0 0-.786 1.795l3.415 10.113a3.36 3.36 0 0 1-1.781-.92 1.89 1.89 0 0 0-2.672 0 3.38 3.38 0 0 1-4.744 0 .932.932 0 0 0-1.589.666v12.818A2.299 2.299 0 0 0 2.796 45.5h18.666a.66.66 0 1 0 0-1.318H2.796a.979.979 0 0 1-.978-.978V37.81a4.691 4.691 0 0 0 5.94-.534.582.582 0 0 1 .822 0 4.698 4.698 0 0 0 6.593 0 .582.582 0 0 1 .822 0 4.698 4.698 0 0 0 6.594 0 .582.582 0 0 1 .822 0 4.698 4.698 0 0 0 6.593 0 .582.582 0 0 1 .823 0 4.698 4.698 0 0 0 6.593 0 .582.582 0 0 1 .823 0 4.693 4.693 0 0 0 5.938.535v5.393a.978.978 0 0 1-.977.977H24.538a.66.66 0 0 0 0 1.319h18.666a2.299 2.299 0 0 0 2.296-2.296V30.386c0-.829-1-1.244-1.589-.665ZM14.154 2.474c0-.361.294-.655.655-.655h16.224c.36 0 .654.294.654.655v1.402H14.154V2.473Zm0 2.72h17.533V7.25H14.154V5.193Zm-3.126 3.668c0-.162.131-.293.293-.293h11.02v4.062l-.09.038h-.002l-11.221 5.006V8.861ZM9.12 20.105a.136.136 0 0 1 .074-.169c.339-.151 13.236-5.904 13.592-6.064l.02-.007a.524.524 0 0 1 .407.007l13.593 6.064a.137.137 0 0 1 .075.17l-.874 2.585-12.256-5.467a1.842 1.842 0 0 0-1.502 0L9.993 22.69l-.873-2.586Zm1.296 3.841 12.37-5.518a.525.525 0 0 1 .427 0l12.37 5.518-2.246 6.652a3.397 3.397 0 0 1-1.585-.877 1.894 1.894 0 0 0-2.672 0 3.381 3.381 0 0 1-4.744 0 1.893 1.893 0 0 0-2.672 0 3.38 3.38 0 0 1-4.744 0 1.89 1.89 0 0 0-2.672 0c-.43.422-.98.733-1.585.878l-2.247-6.653Zm33.766 12.09a3.382 3.382 0 0 1-5.015.3 1.89 1.89 0 0 0-2.671 0 3.38 3.38 0 0 1-4.744 0 1.89 1.89 0 0 0-2.672 0 3.38 3.38 0 0 1-4.744 0 1.89 1.89 0 0 0-2.672 0 3.38 3.38 0 0 1-4.744 0 1.89 1.89 0 0 0-2.672 0 3.38 3.38 0 0 1-4.744 0 1.89 1.89 0 0 0-2.671 0 3.382 3.382 0 0 1-5.015-.3v-4.837a4.7 4.7 0 0 0 5.94-.539.582.582 0 0 1 .822 0 4.699 4.699 0 0 0 6.593 0 .582.582 0 0 1 .822 0 4.698 4.698 0 0 0 6.594 0 .582.582 0 0 1 .822 0 4.699 4.699 0 0 0 6.594 0 .583.583 0 0 1 .831.009 4.68 4.68 0 0 0 3.288 1.341c1.24 0 2.412-.48 3.296-1.35a.582.582 0 0 1 .823 0 4.7 4.7 0 0 0 5.938.539v4.838Z"/></g><defs><clipPath id="a"><path fill="#fff" transform="translate(.5 .5)" d="M0 0h45v45H0z"/></clipPath></defs></svg>