<svg width="46" height="46" fill="none" xmlns="http://www.w3.org/2000/svg"><path d="M30.039 33.684H17.833a.8.8 0 0 0-.576.247.86.86 0 0 0-.238.597v10.128a.86.86 0 0 0 .238.597.8.8 0 0 0 .576.247h12.206a.8.8 0 0 0 .575-.247.86.86 0 0 0 .239-.597V34.528a.86.86 0 0 0-.239-.597.8.8 0 0 0-.575-.247Zm-.814 10.128H18.646v-8.44h4.476v.844a.86.86 0 0 0 .238.597.8.8 0 0 0 .576.247.8.8 0 0 0 .575-.247.86.86 0 0 0 .239-.597v-.844h4.475v8.44Zm15.461-10.128H32.48a.8.8 0 0 0-.575.247.86.86 0 0 0-.239.597v10.128a.86.86 0 0 0 .239.597.8.8 0 0 0 .575.247h12.206a.8.8 0 0 0 .576-.247.86.86 0 0 0 .238-.597V34.528a.86.86 0 0 0-.238-.597.8.8 0 0 0-.576-.247Zm-.813 10.128H33.294v-8.44h4.476v.844a.86.86 0 0 0 .238.597.8.8 0 0 0 .575.247.8.8 0 0 0 .576-.247.86.86 0 0 0 .238-.597v-.844h4.476v8.44Zm.813-22.788H32.48a.8.8 0 0 0-.575.248.86.86 0 0 0-.239.596v10.128a.86.86 0 0 0 .239.597.8.8 0 0 0 .575.247h12.206a.8.8 0 0 0 .576-.247.86.86 0 0 0 .238-.597V21.868a.86.86 0 0 0-.238-.596.8.8 0 0 0-.576-.248Zm-.813 10.128H33.294v-8.44h4.476v.844a.86.86 0 0 0 .238.597.8.8 0 0 0 .575.247.8.8 0 0 0 .576-.247.86.86 0 0 0 .238-.597v-.844h4.476v8.44Z" fill="#4D7B7D"/><path d="M32.374 19.311a.833.833 0 0 0 .497-.394.864.864 0 0 0 .081-.644l-.716-2.777 2.441-2.135.065-.059a16.3 16.3 0 0 0 3.556-6.246c.564-1.848.798-3.787.692-5.722a.859.859 0 0 0-.23-.542.802.802 0 0 0-.518-.251 14.482 14.482 0 0 0-5.453.633 15.13 15.13 0 0 0-6.16 3.832l-2.066 2.532-4.818-1.36a.86.86 0 0 0 .237-.594.86.86 0 0 0-.237-.595.812.812 0 0 0-.578-.25.79.79 0 0 0-.577.25l-.57.59a1.314 1.314 0 0 0-.09.136l-3.66-1.022.293-.304a.848.848 0 0 0 .24-.599.871.871 0 0 0-.24-.599.799.799 0 0 0-.574-.245.799.799 0 0 0-.574.245l-.992.979-7.007-1.941a.787.787 0 0 0-.523.032.823.823 0 0 0-.396.356L2.6 6.12a.865.865 0 0 0-.09.641.852.852 0 0 0 .391.515l14.712 8.693-8.137 9.875-6.95-.768a.787.787 0 0 0-.426.073.821.821 0 0 0-.33.29L.639 27.143a.863.863 0 0 0-.106.71.854.854 0 0 0 .166.32.816.816 0 0 0 .281.22l6.103 2.827 2.303 2.388 2.726 6.33c.05.112.121.212.211.292.09.08.196.139.31.172a.659.659 0 0 0 .22 0 .84.84 0 0 0 .464-.143L15 39.069a.837.837 0 0 0 .282-.346.873.873 0 0 0 .068-.447l-.74-7.191 7.836-6.946 1.676-1.486 4.394 8.001a.837.837 0 0 0 .21.25.801.801 0 0 0 .603.17.793.793 0 0 0 .302-.107.84.84 0 0 0 .379-.51.871.871 0 0 0-.078-.638l-4.549-8.254 5.477-4.853.52 2c.056.216.192.4.378.512a.788.788 0 0 0 .615.087ZM4.414 6.187l1.213-2.16 17.74 4.912-4.68 5.688-14.273-8.44Zm26.374 8.372-6.974 6.17-2.441 2.152-8.138 7.242a.845.845 0 0 0-.226.331.873.873 0 0 0-.05.403l.732 7.132-.48.337-2.417-5.553a.844.844 0 0 0-.17-.254l-2.515-2.607a.813.813 0 0 0-.236-.17l-5.338-2.48.325-.498 6.884.76a.786.786 0 0 0 .389-.053.815.815 0 0 0 .32-.235L25.44 8.998l2.328-2.82a13.34 13.34 0 0 1 5.444-3.375 12.682 12.682 0 0 1 4.125-.608c.007 1.48-.21 2.953-.643 4.364a14.479 14.479 0 0 1-3.116 5.545l-2.791 2.456Z" fill="#4D7B7D"/><path d="m29.567 11.488-8.634 7.756a.864.864 0 0 0-.063 1.173.794.794 0 0 0 1.129.101l8.634-7.756a.864.864 0 0 0 .063-1.173.794.794 0 0 0-1.129-.101ZM12.283 27.025l-1.627 1.688a.86.86 0 0 0-.237.595.86.86 0 0 0 .237.595.8.8 0 0 0 .57.253.789.789 0 0 0 .577-.253l1.627-1.688a.864.864 0 0 0-.042-1.145.796.796 0 0 0-1.105-.044Z" fill="#4D7B7D"/></svg>