<svg width="46" height="46" fill="none" xmlns="http://www.w3.org/2000/svg"><path d="M42.688 39.172h-.13c.079-.22.13-.456.13-.703V30.03c0-1.163-.947-2.11-2.11-2.11H36.23c.079-.22.13-.455.13-.702V18.78c0-1.163-.947-2.11-2.11-2.11h-5.688L24.16 8.235h.95v-7.03h-4.22v7.03h.927l-4.585 8.438H11.75c-1.163 0-2.11.946-2.11 2.11v8.437c0 .247.051.482.13.703H5.422c-1.163 0-2.11.946-2.11 2.11v8.437c0 .247.051.482.13.703h-.13a2.112 2.112 0 0 0-2.109 2.11v1.406c0 1.162.947 2.109 2.11 2.109h39.374c1.163 0 2.11-.947 2.11-2.11v-1.406c0-1.163-.947-2.11-2.11-2.11Zm-1.407-9.14v8.437a.703.703 0 0 1-.703.703h-.277l-2.935-5.625h1.103v-4.219h2.11c.387 0 .702.315.702.703Zm-23.906 8.437V30.03c0-.388.315-.703.703-.703h2.11v4.219h5.625v-4.219h2.109c.388 0 .703.315.703.703v8.438a.703.703 0 0 1-.703.703h-9.844a.703.703 0 0 1-.703-.703Zm10.547-19.984 1.255 2.406h-1.255v-2.406Zm1.989 3.812 2.935 5.625h-8.44a.703.703 0 0 1-.703-.703V18.78c0-.387.315-.703.703-.703h2.11v4.219h3.395Zm6.722 9.844-1.468-2.813h1.898v2.813h-.43Zm-12.227-2.813v2.813h-2.812v-2.813h2.812Zm5.625 9.14v-8.437c0-.388.315-.703.703-.703h2.845l5.136 9.844h-7.98a.703.703 0 0 1-.704-.703Zm4.219-20.39c.388 0 .703.316.703.703v8.438c0 .33-.232.594-.539.67l-5.118-9.81h4.954ZM22.297 2.61h1.406v4.22h-1.406V2.61Zm.69 6.418 3.99 7.645h-2.57a2.1 2.1 0 0 0-1.407.548 2.092 2.092 0 0 0-1.406-.548h-2.761l4.154-7.645Zm-7.721 9.051h2.812v2.813h-2.812v-2.813Zm-4.22 9.14v-8.437c0-.387.316-.703.704-.703h2.11v4.219h5.624v-4.219h2.11c.388 0 .703.316.703.703v8.438a.703.703 0 0 1-.703.703H11.75a.703.703 0 0 1-.703-.703Zm-2.108 2.11h2.812v2.813H8.937v-2.813Zm-4.22 9.14v-8.437c0-.388.316-.703.704-.703h2.11v4.219h5.624v-4.219h2.11c.388 0 .703.315.703.703v8.438a.703.703 0 0 1-.703.703H5.422a.703.703 0 0 1-.703-.703Zm-2.109 4.22V41.28c0-.388.315-.703.704-.703h35.859v2.813H3.312a.703.703 0 0 1-.703-.703Zm40.782 0a.703.703 0 0 1-.703.703h-2.11v-2.813h2.11c.388 0 .703.315.703.703v1.407Z" fill="#4D7B7D"/></svg>