<svg width="46" height="46" fill="none" xmlns="http://www.w3.org/2000/svg"><path d="M44.533 28.83h-1.12v-6.014c0-.672-.23-1.264-.685-1.76l-3.458-3.768a2.54 2.54 0 0 0-1.918-.843h-.227l-1.21-1.21a1.357 1.357 0 0 0-.979-.406h-5.737v-4.516a1.44 1.44 0 0 0-1.438-1.438H3.414a.44.44 0 0 0 0 .879H27.76a.56.56 0 0 1 .559.559V27.47H27.7V12.393a.44.44 0 0 0-.44-.44h-6.7a.44.44 0 0 0-.439.44v1.676h-6.26a.44.44 0 0 0-.44.44v6.26h-6.26a.44.44 0 0 0-.44.44v6.26H3.976v-6.904a.44.44 0 0 0-.88 0v12.697c0 .243.198.44.44.44h3.53a3.868 3.868 0 0 0 3.838 3.423c1.982 0 3.619-1.5 3.837-3.423h16.74a3.868 3.868 0 0 0 3.837 3.423c1.982 0 3.619-1.5 3.838-3.423h3.963a1.856 1.856 0 0 0 1.854-1.854V29.27a.44.44 0 0 0-.44-.44Zm-1.999-.904h-1.087v-1.399h1.087v1.398Zm-.004-5.215h-9.172v-3.7h6.3l2.423 2.64c.28.306.427.654.449 1.06Zm-3.908-4.83.23.251h-5.933a.44.44 0 0 0-.44.44v4.579c0 .243.197.44.44.44h9.615v2.057h-1.526a.44.44 0 0 0-.44.44v2.277c0 .243.197.44.44.44h1.526v2.102h-4.156a3.858 3.858 0 0 0-6.119 0h-3.06V17.324h8.154c.502 0 .93.188 1.27.558ZM14.474 31.787h17.275a3.831 3.831 0 0 0-.268 1.037H14.74a3.836 3.836 0 0 0-.268-1.037Zm20.462-16.078c.143 0 .256.047.357.148l.59.589h-6.684v-.737h5.737ZM21.001 27.47v-5.822h1.492v1.74a.44.44 0 0 0 .637.393l.782-.392.782.392a.44.44 0 0 0 .637-.392v-1.74h1.492v5.82H21Zm-4.33-5.822h1.08v1.028l-.342-.172a.44.44 0 0 0-.394 0l-.343.172v-1.028Zm-.67 2.114a.44.44 0 0 0 .428.02l.783-.393.782.392a.44.44 0 0 0 .637-.392v-1.74h1.491v5.82h-5.82v-5.82h1.49v1.74a.44.44 0 0 0 .21.373Zm7.37-2.114h1.08v1.028l-.342-.172a.44.44 0 0 0-.394 0l-.343.172v-1.028Zm0-8.816h1.08v1.028l-.342-.172a.44.44 0 0 0-.394 0l-.343.172v-1.028Zm-.878 0v1.74a.44.44 0 0 0 .637.393l.782-.393.782.393a.44.44 0 0 0 .637-.393v-1.74h1.492v7.937H21v-7.937h1.492Zm-5.821 2.116h1.08v1.028l-.343-.172a.44.44 0 0 0-.394 0l-.343.172v-1.028Zm-2.371 0h1.492v1.74a.44.44 0 0 0 .636.393l.783-.392.782.392a.44.44 0 0 0 .637-.393v-1.74h1.491v5.821h-5.82v-5.82H14.3Zm-4.33 6.7h1.08v1.028l-.342-.172a.44.44 0 0 0-.394 0l-.343.172v-1.028Zm-2.37 0h1.492v1.74a.44.44 0 0 0 .636.393l.783-.392.782.392a.44.44 0 0 0 .636-.392v-1.74h1.492v5.82H7.601v-5.82Zm20.719 6.7v2.56H13.963a3.858 3.858 0 0 0-6.118 0H6.012v-1.159a.44.44 0 0 0-.44-.44H3.977v-.96H28.32Zm-23.187 2.56H3.976v-.72h1.157v.72Zm-1.157.878h3.359a3.83 3.83 0 0 0-.268 1.036H3.976v-1.036Zm6.928 4.46a2.988 2.988 0 0 1-2.984-2.984 2.987 2.987 0 0 1 2.984-2.984 2.987 2.987 0 0 1 2.984 2.984 2.988 2.988 0 0 1-2.984 2.984Zm24.414 0a2.987 2.987 0 0 1-2.984-2.984 2.987 2.987 0 0 1 2.984-2.984 2.987 2.987 0 0 1 2.985 2.984 2.988 2.988 0 0 1-2.985 2.984Zm8.776-4.398a.976.976 0 0 1-.975.974h-3.963a3.83 3.83 0 0 0-.268-1.036h4.086a.44.44 0 0 0 .44-.44V29.71h.68v2.139ZM32.05 26.633a.44.44 0 0 1 .44-.44h1.889a.44.44 0 1 1 0 .879h-1.89a.44.44 0 0 1-.44-.44Zm3.267 4.507c-1.17 0-2.121.952-2.121 2.122s.951 2.122 2.121 2.122 2.122-.952 2.122-2.122-.952-2.122-2.122-2.122Zm0 3.365a1.244 1.244 0 0 1-1.242-1.243c0-.685.557-1.243 1.242-1.243.686 0 1.243.558 1.243 1.243s-.557 1.243-1.243 1.243ZM10.904 31.14c-1.17 0-2.122.952-2.122 2.122s.952 2.122 2.122 2.122 2.122-.952 2.122-2.122-.952-2.122-2.122-2.122Zm0 3.365a1.244 1.244 0 0 1-1.243-1.243c0-.685.558-1.243 1.243-1.243s1.243.558 1.243 1.243-.558 1.243-1.243 1.243ZM1.467 12.2a.44.44 0 0 1 0-.879h3.765a.44.44 0 0 1 0 .88H1.467Zm1.694 1.13H6.08a.44.44 0 0 1 0 .878H3.161a.44.44 0 0 1 0-.879Zm4.236 5.961h-5.02a.44.44 0 0 1 0-.879h5.02a.44.44 0 0 1 0 .88Zm-1.914-2.353h-3.61a.44.44 0 0 1 0-.879h3.61a.44.44 0 0 1 0 .879Z" fill="#4D7B7D"/></svg>