<svg width="46" height="46" viewBox="0 0 46 46" fill="none" xmlns="http://www.w3.org/2000/svg">
<path d="M38.5829 40.4016L38.5829 40.4014L38.5829 40.4016Z" fill="#4D7B7D" stroke="#4D7B7D"/>
<mask id="path-2-inside-1_5_323" fill="white">
<path fill-rule="evenodd" clip-rule="evenodd" d="M25.5794 40.8577C25.3278 40.8577 25.1231 40.6535 25.1231 40.4016L25.1232 36.1379C25.1232 35.8858 25.3275 35.6816 25.5794 35.6816C25.8314 35.6816 26.0356 35.8859 26.0356 36.1379L26.0356 40.4014C26.0356 40.6534 25.8313 40.8578 25.5794 40.8577Z"/>
</mask>
<path fill-rule="evenodd" clip-rule="evenodd" d="M25.5794 40.8577C25.3278 40.8577 25.1231 40.6535 25.1231 40.4016L25.1232 36.1379C25.1232 35.8858 25.3275 35.6816 25.5794 35.6816C25.8314 35.6816 26.0356 35.8859 26.0356 36.1379L26.0356 40.4014C26.0356 40.6534 25.8313 40.8578 25.5794 40.8577Z" fill="#4D7B7D"/>
<path d="M25.5794 40.8577L25.5798 39.8577H25.5794V40.8577ZM25.1231 40.4016L24.1231 40.4015V40.4016H25.1231ZM25.1232 36.1379L26.1232 36.1379V36.1379H25.1232ZM25.5794 35.6816V36.6816H25.5795L25.5794 35.6816ZM26.0356 36.1379H25.0356V36.1379L26.0356 36.1379ZM26.0356 40.4014H27.0356V40.4014L26.0356 40.4014ZM25.5794 39.8577C25.8791 39.8577 26.1231 40.1002 26.1231 40.4016H24.1231C24.1231 41.2067 24.7765 41.8577 25.5794 41.8577V39.8577ZM26.1231 40.4016L26.1232 36.1379L24.1232 36.1378L24.1231 40.4015L26.1231 40.4016ZM26.1232 36.1379C26.1232 36.4383 25.8796 36.6816 25.5794 36.6816V34.6816C24.7754 34.6816 24.1232 35.3333 24.1232 36.1379H26.1232ZM25.5795 36.6816C25.2788 36.6817 25.0356 36.4379 25.0356 36.1379H27.0356C27.0356 35.3339 26.384 34.6816 25.5793 34.6816L25.5795 36.6816ZM25.0356 36.1379L25.0356 40.4014L27.0356 40.4014L27.0356 36.1379L25.0356 36.1379ZM25.0356 40.4014C25.0356 40.1014 25.2789 39.8575 25.5798 39.8577L25.579 41.8577C26.3836 41.858 27.0356 41.2055 27.0356 40.4014H25.0356Z" fill="#4D7B7D" mask="url(#path-2-inside-1_5_323)"/>
<mask id="path-4-inside-2_5_323" fill="white">
<path fill-rule="evenodd" clip-rule="evenodd" d="M22.1659 39.8633H3.53315C3.28113 39.8633 3.07678 39.6592 3.07678 39.4072L3.07691 5.59833C3.07691 5.34631 3.28113 5.14214 3.53297 5.14214L30.4023 5.14209C30.6543 5.14209 30.8585 5.34644 30.8585 5.5984V14.1553C30.8585 14.4073 30.6542 14.6116 30.4023 14.6116C30.1499 14.6115 29.946 14.4073 29.946 14.1554V6.05453H3.98943V38.9508H22.1659C22.4176 38.9508 22.6218 39.1552 22.6218 39.4072C22.6222 39.659 22.4177 39.8633 22.1659 39.8633Z"/>
</mask>
<path fill-rule="evenodd" clip-rule="evenodd" d="M22.1659 39.8633H3.53315C3.28113 39.8633 3.07678 39.6592 3.07678 39.4072L3.07691 5.59833C3.07691 5.34631 3.28113 5.14214 3.53297 5.14214L30.4023 5.14209C30.6543 5.14209 30.8585 5.34644 30.8585 5.5984V14.1553C30.8585 14.4073 30.6542 14.6116 30.4023 14.6116C30.1499 14.6115 29.946 14.4073 29.946 14.1554V6.05453H3.98943V38.9508H22.1659C22.4176 38.9508 22.6218 39.1552 22.6218 39.4072C22.6222 39.659 22.4177 39.8633 22.1659 39.8633Z" fill="#4D7B7D"/>
<path d="M3.07678 39.4072L2.07678 39.4072V39.4072H3.07678ZM3.07691 5.59833L4.07691 5.59833V5.59833H3.07691ZM3.53297 5.14214V6.14214H3.53297L3.53297 5.14214ZM30.4023 5.14209V4.14209H30.4023L30.4023 5.14209ZM30.4023 14.6116L30.402 15.6116H30.4023V14.6116ZM29.946 6.05453H30.946V5.05453H29.946V6.05453ZM3.98943 6.05453V5.05453H2.98943V6.05453H3.98943ZM3.98943 38.9508H2.98943V39.9508H3.98943V38.9508ZM22.6218 39.4072H21.6218L21.6218 39.4085L22.6218 39.4072ZM22.1659 38.8633H3.53315V40.8633H22.1659V38.8633ZM3.53315 38.8633C3.83267 38.8633 4.07678 39.1062 4.07678 39.4072H2.07678C2.07678 40.2122 2.72958 40.8633 3.53315 40.8633V38.8633ZM4.07678 39.4072L4.07691 5.59833L2.07691 5.59832L2.07678 39.4072L4.07678 39.4072ZM4.07691 5.59833C4.07691 5.89848 3.83352 6.14214 3.53297 6.14214V4.14214C2.72873 4.14214 2.07691 4.79413 2.07691 5.59833H4.07691ZM3.53297 6.14214L30.4023 6.14209L30.4023 4.14209L3.53296 4.14214L3.53297 6.14214ZM30.4023 6.14209C30.1017 6.14209 29.8585 5.89846 29.8585 5.5984H31.8585C31.8585 4.79441 31.2068 4.14209 30.4023 4.14209V6.14209ZM29.8585 5.5984V14.1553H31.8585V5.5984H29.8585ZM29.8585 14.1553C29.8585 13.8551 30.1018 13.6116 30.4023 13.6116V15.6116C31.2066 15.6116 31.8585 14.9595 31.8585 14.1553H29.8585ZM30.4026 13.6116C30.7025 13.6117 30.946 13.8553 30.946 14.1554H28.946C28.946 14.9594 29.5973 15.6114 30.402 15.6116L30.4026 13.6116ZM30.946 14.1554V6.05453H28.946V14.1554H30.946ZM29.946 5.05453H3.98943V7.05453H29.946V5.05453ZM2.98943 6.05453V38.9508H4.98943V6.05453H2.98943ZM3.98943 39.9508H22.1659V37.9508H3.98943V39.9508ZM22.1659 39.9508C21.8643 39.9508 21.6218 39.7066 21.6218 39.4072H23.6218C23.6218 38.6039 22.9708 37.9508 22.1659 37.9508V39.9508ZM21.6218 39.4085C21.6214 39.1063 21.8662 38.8633 22.1659 38.8633V40.8633C22.9692 40.8633 23.6229 40.2118 23.6218 39.4058L21.6218 39.4085Z" fill="#4D7B7D" mask="url(#path-4-inside-2_5_323)"/>
<mask id="path-6-inside-3_5_323" fill="white">
<path fill-rule="evenodd" clip-rule="evenodd" d="M6.88112 15.1655H12.26V10.3414H6.88112V15.1655ZM12.7162 16.078H6.42489C6.17326 16.078 5.96863 15.8738 5.96863 15.6218L5.96868 9.88519C5.96868 9.63322 6.17297 9.42903 6.42489 9.42903L12.7162 9.42896C12.9682 9.42896 13.1725 9.63328 13.1725 9.88524V15.6218C13.1725 15.8737 12.9681 16.078 12.7162 16.078Z"/>
</mask>
<path fill-rule="evenodd" clip-rule="evenodd" d="M6.88112 15.1655H12.26V10.3414H6.88112V15.1655ZM12.7162 16.078H6.42489C6.17326 16.078 5.96863 15.8738 5.96863 15.6218L5.96868 9.88519C5.96868 9.63322 6.17297 9.42903 6.42489 9.42903L12.7162 9.42896C12.9682 9.42896 13.1725 9.63328 13.1725 9.88524V15.6218C13.1725 15.8737 12.9681 16.078 12.7162 16.078Z" fill="#4D7B7D"/>
<path d="M6.88112 15.1655H5.88112V16.1655H6.88112V15.1655ZM12.26 15.1655V16.1655H13.26V15.1655H12.26ZM12.26 10.3414H13.26V9.34143H12.26V10.3414ZM6.88112 10.3414V9.34143H5.88112V10.3414H6.88112ZM5.96863 15.6218L4.96863 15.6218V15.6218H5.96863ZM5.96868 9.88519L6.96868 9.8852V9.88519H5.96868ZM6.42489 9.42903V10.429H6.4249L6.42489 9.42903ZM12.7162 9.42896V8.42896H12.7162L12.7162 9.42896ZM6.88112 16.1655H12.26V14.1655H6.88112V16.1655ZM13.26 15.1655V10.3414H11.26V15.1655H13.26ZM12.26 9.34143H6.88112V11.3414H12.26V9.34143ZM5.88112 10.3414V15.1655H7.88112V10.3414H5.88112ZM12.7162 15.078H6.42489V17.078H12.7162V15.078ZM6.42489 15.078C6.72484 15.078 6.96863 15.3208 6.96863 15.6218H4.96863C4.96863 16.4268 5.62168 17.078 6.42489 17.078V15.078ZM6.96863 15.6218L6.96868 9.8852L4.96868 9.88518L4.96863 15.6218L6.96863 15.6218ZM6.96868 9.88519C6.96868 10.1857 6.72504 10.429 6.42489 10.429V8.42903C5.62091 8.42903 4.96868 9.08072 4.96868 9.88519H6.96868ZM6.4249 10.429L12.7163 10.429L12.7162 8.42896L6.42488 8.42903L6.4249 10.429ZM12.7162 10.429C12.4158 10.429 12.1725 10.1854 12.1725 9.88524H14.1725C14.1725 9.08114 13.5206 8.42896 12.7162 8.42896V10.429ZM12.1725 9.88524V15.6218H14.1725V9.88524H12.1725ZM12.1725 15.6218C12.1725 15.3214 12.416 15.078 12.7162 15.078V17.078C13.5203 17.078 14.1725 16.4261 14.1725 15.6218H12.1725Z" fill="#4D7B7D" mask="url(#path-6-inside-3_5_323)"/>
<mask id="path-8-inside-4_5_323" fill="white">
<path fill-rule="evenodd" clip-rule="evenodd" d="M27.0133 11.8168H15.7833C15.5313 11.8168 15.3277 11.6128 15.3277 11.3607C15.3278 11.1088 15.5312 10.9046 15.7831 10.9046L27.0134 10.9045C27.265 10.9045 27.4693 11.1088 27.4693 11.3607C27.4696 11.6128 27.2652 11.8168 27.0133 11.8168Z"/>
</mask>
<path fill-rule="evenodd" clip-rule="evenodd" d="M27.0133 11.8168H15.7833C15.5313 11.8168 15.3277 11.6128 15.3277 11.3607C15.3278 11.1088 15.5312 10.9046 15.7831 10.9046L27.0134 10.9045C27.265 10.9045 27.4693 11.1088 27.4693 11.3607C27.4696 11.6128 27.2652 11.8168 27.0133 11.8168Z" fill="#4D7B7D"/>
<path d="M15.3277 11.3607L14.3277 11.3604V11.3607H15.3277ZM15.7831 10.9046V11.9046H15.7831L15.7831 10.9046ZM27.0134 10.9045V9.90454H27.0134L27.0134 10.9045ZM27.4693 11.3607H26.4693L26.4693 11.362L27.4693 11.3607ZM27.0133 10.8168H15.7833V12.8168H27.0133V10.8168ZM15.7833 10.8168C16.085 10.8168 16.3277 11.0619 16.3277 11.3607H14.3277C14.3277 12.1636 14.9776 12.8168 15.7833 12.8168V10.8168ZM16.3277 11.361C16.3276 11.6587 16.0859 11.9046 15.7831 11.9046V9.90457C14.9765 9.90457 14.3279 10.5588 14.3277 11.3604L16.3277 11.361ZM15.7831 11.9046L27.0134 11.9045L27.0134 9.90454L15.7831 9.90457L15.7831 11.9046ZM27.0134 11.9045C26.7123 11.9045 26.4693 11.6607 26.4693 11.3607H28.4693C28.4693 10.5569 27.8176 9.90454 27.0134 9.90454V11.9045ZM26.4693 11.362C26.4689 11.0599 26.7138 10.8168 27.0133 10.8168V12.8168C27.8167 12.8168 28.4703 12.1656 28.4693 11.3595L26.4693 11.362Z" fill="#4D7B7D" mask="url(#path-8-inside-4_5_323)"/>
<path d="M18.6908 14.1899H18.6911C18.691 14.1899 18.6909 14.1899 18.6908 14.1899Z" fill="#4D7B7D" stroke="#4D7B7D"/>
<mask id="path-11-inside-5_5_323" fill="white">
<path fill-rule="evenodd" clip-rule="evenodd" d="M6.88112 24.9146H12.26V20.0907H6.88112V24.9146ZM12.7162 25.827H6.42489C6.17326 25.827 5.96863 25.6229 5.96863 25.371L5.96868 19.6345C5.96868 19.3825 6.17297 19.1783 6.42489 19.1783L12.7162 19.1782C12.9682 19.1782 13.1725 19.3825 13.1725 19.6345V25.3708C13.1725 25.6228 12.9681 25.8272 12.7162 25.827Z"/>
</mask>
<path fill-rule="evenodd" clip-rule="evenodd" d="M6.88112 24.9146H12.26V20.0907H6.88112V24.9146ZM12.7162 25.827H6.42489C6.17326 25.827 5.96863 25.6229 5.96863 25.371L5.96868 19.6345C5.96868 19.3825 6.17297 19.1783 6.42489 19.1783L12.7162 19.1782C12.9682 19.1782 13.1725 19.3825 13.1725 19.6345V25.3708C13.1725 25.6228 12.9681 25.8272 12.7162 25.827Z" fill="#4D7B7D"/>
<path d="M6.88112 24.9146H5.88112V25.9146H6.88112V24.9146ZM12.26 24.9146V25.9146H13.26V24.9146H12.26ZM12.26 20.0907H13.26V19.0907H12.26V20.0907ZM6.88112 20.0907V19.0907H5.88112V20.0907H6.88112ZM12.7162 25.827L12.7169 24.827H12.7162V25.827ZM5.96863 25.371L4.96863 25.371V25.371H5.96863ZM5.96868 19.6345L6.96868 19.6345V19.6345H5.96868ZM6.42489 19.1783V20.1783H6.4249L6.42489 19.1783ZM12.7162 19.1782V18.1782H12.7162L12.7162 19.1782ZM6.88112 25.9146H12.26V23.9146H6.88112V25.9146ZM13.26 24.9146V20.0907H11.26V24.9146H13.26ZM12.26 19.0907H6.88112V21.0907H12.26V19.0907ZM5.88112 20.0907V24.9146H7.88112V20.0907H5.88112ZM12.7162 24.827H6.42489V26.827H12.7162V24.827ZM6.42489 24.827C6.72455 24.827 6.96863 25.0696 6.96863 25.371H4.96863C4.96863 26.1762 5.62197 26.827 6.42489 26.827V24.827ZM6.96863 25.371L6.96868 19.6345L4.96868 19.6344L4.96863 25.371L6.96863 25.371ZM6.96868 19.6345C6.96868 19.935 6.725 20.1783 6.42489 20.1783V18.1783C5.62095 18.1783 4.96868 18.8299 4.96868 19.6345H6.96868ZM6.4249 20.1783L12.7163 20.1782L12.7162 18.1782L6.42488 18.1783L6.4249 20.1783ZM12.7162 20.1782C12.4159 20.1782 12.1725 19.9348 12.1725 19.6345H14.1725C14.1725 18.8303 13.5205 18.1782 12.7162 18.1782V20.1782ZM12.1725 19.6345V25.3708H14.1725V19.6345H12.1725ZM12.1725 25.3708C12.1725 25.0709 12.4156 24.8269 12.7169 24.827L12.7156 26.827C13.5207 26.8275 14.1725 26.1747 14.1725 25.3708H12.1725Z" fill="#4D7B7D" mask="url(#path-11-inside-5_5_323)"/>
<mask id="path-13-inside-6_5_323" fill="white">
<path fill-rule="evenodd" clip-rule="evenodd" d="M26.7445 21.5663H15.7832C15.5312 21.5663 15.3276 21.362 15.3276 21.11C15.3277 20.858 15.5311 20.6538 15.783 20.6538H26.7445C26.9965 20.6538 27.2006 20.8581 27.2006 21.11C27.2007 21.3618 26.9963 21.5663 26.7445 21.5663Z"/>
</mask>
<path fill-rule="evenodd" clip-rule="evenodd" d="M26.7445 21.5663H15.7832C15.5312 21.5663 15.3276 21.362 15.3276 21.11C15.3277 20.858 15.5311 20.6538 15.783 20.6538H26.7445C26.9965 20.6538 27.2006 20.8581 27.2006 21.11C27.2007 21.3618 26.9963 21.5663 26.7445 21.5663Z" fill="#4D7B7D"/>
<path d="M15.3276 21.11L14.3276 21.1097V21.11H15.3276ZM27.2006 21.11H26.2006V21.1104L27.2006 21.11ZM26.7445 20.5663H15.7832V22.5663H26.7445V20.5663ZM15.7832 20.5663C16.0854 20.5663 16.3276 20.8116 16.3276 21.11H14.3276C14.3276 21.9123 14.977 22.5663 15.7832 22.5663V20.5663ZM16.3276 21.1103C16.3275 21.4079 16.0859 21.6538 15.783 21.6538V19.6538C14.9764 19.6538 14.3279 20.3082 14.3276 21.1097L16.3276 21.1103ZM15.783 21.6538H26.7445V19.6538H15.783V21.6538ZM26.7445 21.6538C26.4439 21.6538 26.2006 21.4101 26.2006 21.11H28.2006C28.2006 20.3061 27.549 19.6538 26.7445 19.6538V21.6538ZM26.2006 21.1104C26.2005 20.8097 26.444 20.5663 26.7445 20.5663V22.5663C27.5486 22.5663 28.2009 21.914 28.2006 21.1096L26.2006 21.1104Z" fill="#4D7B7D" mask="url(#path-13-inside-6_5_323)"/>
<path d="M18.6908 23.9394H18.6911C18.691 23.9394 18.6909 23.9394 18.6908 23.9394Z" fill="#4D7B7D" stroke="#4D7B7D"/>
<mask id="path-16-inside-7_5_323" fill="white">
<path fill-rule="evenodd" clip-rule="evenodd" d="M6.88112 34.6641H12.26V29.8402H6.88112V34.6641ZM12.7162 35.5766H6.42489C6.17326 35.5766 5.96863 35.3724 5.96863 35.1204L5.96868 29.384C5.96868 29.132 6.17297 28.9278 6.42489 28.9278L12.7162 28.9277C12.9682 28.9277 13.1725 29.1321 13.1725 29.384V35.1203C13.1725 35.3723 12.9681 35.5767 12.7162 35.5766Z"/>
</mask>
<path fill-rule="evenodd" clip-rule="evenodd" d="M6.88112 34.6641H12.26V29.8402H6.88112V34.6641ZM12.7162 35.5766H6.42489C6.17326 35.5766 5.96863 35.3724 5.96863 35.1204L5.96868 29.384C5.96868 29.132 6.17297 28.9278 6.42489 28.9278L12.7162 28.9277C12.9682 28.9277 13.1725 29.1321 13.1725 29.384V35.1203C13.1725 35.3723 12.9681 35.5767 12.7162 35.5766Z" fill="#4D7B7D"/>
<path d="M6.88112 34.6641H5.88112V35.6641H6.88112V34.6641ZM12.26 34.6641V35.6641H13.26V34.6641H12.26ZM12.26 29.8402H13.26V28.8402H12.26V29.8402ZM6.88112 29.8402V28.8402H5.88112V29.8402H6.88112ZM12.7162 35.5766L12.7167 34.5766H12.7162V35.5766ZM5.96863 35.1204L4.96863 35.1204V35.1204H5.96863ZM5.96868 29.384L6.96868 29.384V29.384H5.96868ZM6.42489 28.9278V29.9278H6.4249L6.42489 28.9278ZM12.7162 28.9277V27.9277H12.7162L12.7162 28.9277ZM6.88112 35.6641H12.26V33.6641H6.88112V35.6641ZM13.26 34.6641V29.8402H11.26V34.6641H13.26ZM12.26 28.8402H6.88112V30.8402H12.26V28.8402ZM5.88112 29.8402V34.6641H7.88112V29.8402H5.88112ZM12.7162 34.5766H6.42489V36.5766H12.7162V34.5766ZM6.42489 34.5766C6.72466 34.5766 6.96863 34.8193 6.96863 35.1204H4.96863C4.96863 35.9256 5.62186 36.5766 6.42489 36.5766V34.5766ZM6.96863 35.1205L6.96868 29.384L4.96868 29.384L4.96863 35.1204L6.96863 35.1205ZM6.96868 29.384C6.96868 29.6844 6.72507 29.9278 6.42489 29.9278V27.9278C5.62087 27.9278 4.96868 28.5795 4.96868 29.384H6.96868ZM6.4249 29.9278L12.7163 29.9277L12.7162 27.9277L6.42488 27.9278L6.4249 29.9278ZM12.7162 29.9277C12.4158 29.9277 12.1725 29.6842 12.1725 29.384H14.1725C14.1725 28.5799 13.5206 27.9277 12.7162 27.9277V29.9277ZM12.1725 29.384V35.1203H14.1725V29.384H12.1725ZM12.1725 35.1203C12.1725 34.8203 12.4157 34.5765 12.7167 34.5766L12.7158 36.5766C13.5206 36.5769 14.1725 35.9244 14.1725 35.1203H12.1725Z" fill="#4D7B7D" mask="url(#path-16-inside-7_5_323)"/>
<path d="M22.0208 30.8155V30.8594V30.8155ZM22.0208 30.8155C22.0208 30.8155 22.0208 30.8155 22.0209 30.8155H22.0208ZM15.7831 30.9032L15.7833 30.9032L15.7831 30.9032H15.7831Z" fill="#4D7B7D" stroke="#4D7B7D"/>
<path d="M18.6908 33.6888H18.6911C18.691 33.6888 18.6909 33.6888 18.6908 33.6888Z" fill="#4D7B7D" stroke="#4D7B7D"/>
<path d="M22.5423 33.0697C22.5423 33.0697 22.5422 33.0697 22.5422 33.0697L22.5423 33.0697Z" fill="#4D7B7D" stroke="#4D7B7D"/>
<path d="M41.5762 33.0696L41.5764 33.0694L41.5762 33.0696Z" fill="#4D7B7D" stroke="#4D7B7D"/>
<path d="M25.4912 16.9226C25.4902 17.0169 25.4921 17.1105 25.4968 17.2033C25.5685 18.6165 26.2686 19.835 26.5763 20.3069C26.6371 20.4 26.6825 20.4641 26.7048 20.4948H26.9228H37.2664H37.485C37.5071 20.4644 37.5525 20.4005 37.6132 20.3074C37.9205 19.8363 38.6212 18.6171 38.6922 17.2031C38.6969 17.1104 38.6988 17.0169 38.6978 16.9227C38.6572 16.905 38.5759 16.8685 38.466 16.8133C38.2556 16.7078 37.9405 16.534 37.6046 16.2938C37.1039 15.9357 36.503 15.3915 36.1746 14.6584C36.1368 14.574 36.1026 14.4871 36.0726 14.3976C36.0234 14.4018 35.9222 14.4094 35.7834 14.4146C35.4397 14.4272 34.8649 14.4245 34.2755 14.317C34.2457 14.3115 34.2157 14.3058 34.1856 14.2998L34.203 14.2129C34.8147 14.3361 35.417 14.3412 35.7802 14.3278L36.0974 14.3161L36.0999 14.316L36.1166 14.3154L36.1288 14.3427L36.5376 14.2112M25.4912 16.9226L26.6422 20.5688L26.3184 20.8132M25.4912 16.9226C25.533 16.9044 25.6143 16.8676 25.7235 16.8125C25.9347 16.706 26.2503 16.5313 26.5861 16.2907C27.0863 15.9323 27.6873 15.3884 28.0151 14.6583C28.053 14.5739 28.0872 14.4871 28.1172 14.3977L25.4912 16.9226ZM36.5376 14.2112L36.1291 14.3433L36.2546 14.6224C36.7557 15.7367 37.9348 16.4489 38.5052 16.7351L38.7553 16.8607L38.9146 16.4716M36.5376 14.2112C37.0083 15.6742 38.8955 16.4638 38.9146 16.4716M36.5376 14.2112C36.4711 14.0057 36.2701 13.8742 36.0552 13.8972C36.0219 13.9005 32.7507 14.2207 32.5487 12.3401M38.9146 16.4716L38.7555 16.8608L38.797 16.8816L38.7965 16.8909L38.7964 16.8928L38.7803 17.2077C38.7061 18.6523 37.9807 19.9 37.6858 20.3545L37.5469 20.5686L37.8714 20.8132M38.9146 16.4716C39.0834 16.5407 39.195 16.7036 39.1973 16.8858C39.2338 18.9808 37.9268 20.7393 37.8714 20.8132M37.8714 20.8132L37.5465 20.5693L37.538 20.5823H37.5073H37.2664H26.9228H26.6829H26.651L26.6431 20.5702L26.3184 20.8132M37.8714 20.8132C37.7853 20.9274 37.6504 20.9948 37.5073 20.9948H26.6829C26.5396 20.9948 26.4047 20.9275 26.3184 20.8132M26.3184 20.8132C26.263 20.7392 24.956 18.9809 24.9916 16.8858C24.9948 16.7035 25.1065 16.5407 25.2744 16.4716M32.5487 12.3401C32.5234 12.1083 32.328 11.9326 32.0949 11.9326C31.862 11.9326 31.6665 12.1083 31.6411 12.3401M32.5487 12.3401L32.095 12.3889L32.0949 12.3889L32.0949 12.3889L31.6411 12.3401M32.5487 12.3401L32.0993 12.3893L32.0903 12.3894L31.6411 12.3401M31.6411 12.3401C31.4393 14.2187 28.1741 13.9011 28.1346 13.8973L28.1345 13.8973C27.9199 13.8741 27.7179 14.0052 27.6522 14.2111C27.1841 15.6664 25.2935 16.4639 25.2744 16.4716M25.2744 16.4716L25.4317 16.862L29.9869 14.2129C29.3745 14.336 28.7719 14.3414 28.41 14.3278L28.0938 14.3159L28.0894 14.3158L28.0734 14.3152L28.0614 14.3418L28.061 14.3427L27.9352 14.6224C27.4341 15.7366 26.255 16.449 25.6846 16.7351L25.4347 16.8605L25.2744 16.4716ZM32.0266 12.8723C32.0534 12.8004 32.0763 12.7253 32.0949 12.6472C32.1135 12.7256 32.1365 12.8008 32.1635 12.8729L32.0948 12.7828L32.0266 12.8723ZM32.0947 12.3898L32.0949 12.3899L32.095 12.3899L32.1381 12.3946C32.1358 12.4154 32.118 12.4326 32.095 12.4326C32.0949 12.4326 32.0949 12.4326 32.0949 12.4326C32.0719 12.4326 32.054 12.4153 32.0517 12.3945L32.0947 12.3898Z" fill="#4D7B7D" stroke="#4D7B7D"/>
<mask id="path-23-inside-8_5_323" fill="white">
<path fill-rule="evenodd" clip-rule="evenodd" d="M32.0949 24.7656C30.557 24.7656 29.1049 24.3443 28.0071 23.5793C26.8587 22.7792 26.2266 21.6993 26.2266 20.5385C26.2267 20.2865 26.4309 20.0823 26.6828 20.0823C26.935 20.0823 27.139 20.2866 27.139 20.5385C27.1392 22.3663 29.3623 23.8532 32.0949 23.8532C34.8278 23.8531 37.0509 22.3663 37.0509 20.5385C37.0511 20.2865 37.2552 20.0823 37.5071 20.0823C37.7594 20.0823 37.9633 20.2866 37.9633 20.5385C37.9636 21.6992 37.3305 22.7793 36.1828 23.5793C35.0843 24.3443 33.6332 24.7657 32.0949 24.7656Z"/>
</mask>
<path fill-rule="evenodd" clip-rule="evenodd" d="M32.0949 24.7656C30.557 24.7656 29.1049 24.3443 28.0071 23.5793C26.8587 22.7792 26.2266 21.6993 26.2266 20.5385C26.2267 20.2865 26.4309 20.0823 26.6828 20.0823C26.935 20.0823 27.139 20.2866 27.139 20.5385C27.1392 22.3663 29.3623 23.8532 32.0949 23.8532C34.8278 23.8531 37.0509 22.3663 37.0509 20.5385C37.0511 20.2865 37.2552 20.0823 37.5071 20.0823C37.7594 20.0823 37.9633 20.2866 37.9633 20.5385C37.9636 21.6992 37.3305 22.7793 36.1828 23.5793C35.0843 24.3443 33.6332 24.7657 32.0949 24.7656Z" fill="#4D7B7D"/>
<path d="M32.0949 24.7656L32.095 23.7656H32.0949V24.7656ZM28.0071 23.5793L28.5788 22.7589L28.5788 22.7588L28.0071 23.5793ZM26.2266 20.5385L25.2266 20.5379V20.5385H26.2266ZM27.139 20.5385H26.139L26.139 20.5386L27.139 20.5385ZM32.0949 23.8532V24.8532H32.095L32.0949 23.8532ZM37.0509 20.5385L36.0509 20.5375V20.5385H37.0509ZM37.9633 20.5385H36.9633V20.5387L37.9633 20.5385ZM36.1828 23.5793L36.7543 24.3999L36.7546 24.3997L36.1828 23.5793ZM32.0949 23.7656C30.7298 23.7656 29.4847 23.3901 28.5788 22.7589L27.4354 24.3997C28.7251 25.2985 30.3842 25.7656 32.0949 25.7656V23.7656ZM28.5788 22.7588C27.636 22.102 27.2266 21.3026 27.2266 20.5385H25.2266C25.2266 22.096 26.0813 23.4564 27.4354 24.3998L28.5788 22.7588ZM27.2266 20.5391C27.2264 20.8385 26.9836 21.0823 26.6828 21.0823V19.0823C25.8782 19.0823 25.2271 19.7345 25.2266 20.5379L27.2266 20.5391ZM26.6828 21.0823C26.3824 21.0823 26.139 20.8385 26.139 20.5385H28.139C28.139 19.7346 27.4876 19.0823 26.6828 19.0823V21.0823ZM26.139 20.5386C26.1391 21.8903 26.9609 22.9931 28.0364 23.7125C29.1192 24.4367 30.5574 24.8532 32.0949 24.8532V22.8532C30.8998 22.8532 29.8602 22.5262 29.1483 22.05C28.429 21.569 28.1391 21.0145 28.139 20.5384L26.139 20.5386ZM32.095 24.8532C33.6325 24.8532 35.0708 24.4367 36.1537 23.7124C37.2292 22.9931 38.0509 21.8902 38.0509 20.5385H36.0509C36.0509 21.0145 35.761 21.5689 35.0418 22.05C34.3298 22.5262 33.2901 22.8532 32.0949 22.8532L32.095 24.8532ZM38.0509 20.5395C38.0506 20.8383 37.8083 21.0823 37.5071 21.0823V19.0823C36.7022 19.0823 36.0517 19.7348 36.0509 20.5375L38.0509 20.5395ZM37.5071 21.0823C37.2066 21.0823 36.9633 20.8384 36.9633 20.5385H38.9633C38.9633 19.7348 38.3121 19.0823 37.5071 19.0823V21.0823ZM36.9633 20.5387C36.9635 21.3022 36.5536 22.1019 35.6109 22.7589L36.7546 24.3997C38.1075 23.4566 38.9637 22.0962 38.9633 20.5382L36.9633 20.5387ZM35.6113 22.7587C34.7045 23.3902 33.4601 23.7657 32.095 23.7656L32.0949 25.7656C33.8062 25.7657 35.4641 25.2984 36.7543 24.3999L35.6113 22.7587Z" fill="#4D7B7D" mask="url(#path-23-inside-8_5_323)"/>
<path d="M32.0645 17.8205C32.0071 17.8244 31.9503 17.8391 31.8971 17.8646L31.5296 18.0414M32.0645 17.8205L31.5748 17.4649C31.5889 17.5207 31.5925 17.5794 31.5848 17.6379L31.5296 18.0414M32.0645 17.8205L32.025 18.1092L32.0141 18.1077L32.014 18.1076L31.5296 18.0414M31.5296 18.0414L31.3186 17.6027" fill="#4D7B7D" stroke="#4D7B7D"/>
<mask id="path-26-inside-9_5_323" fill="white">
<path fill-rule="evenodd" clip-rule="evenodd" d="M28.3582 18.39C28.2812 18.39 28.2027 18.3705 28.1314 18.3292C27.913 18.2034 27.8376 17.9246 27.9635 17.7062C28.8151 16.2261 27.7584 14.678 27.7132 14.6128C27.5693 14.4065 27.619 14.1222 27.8249 13.9779C28.031 13.8336 28.3144 13.8825 28.4593 14.0879C28.5189 14.172 29.8994 16.1708 28.7539 18.1613C28.6704 18.308 28.5163 18.3901 28.3582 18.39Z"/>
</mask>
<path fill-rule="evenodd" clip-rule="evenodd" d="M28.3582 18.39C28.2812 18.39 28.2027 18.3705 28.1314 18.3292C27.913 18.2034 27.8376 17.9246 27.9635 17.7062C28.8151 16.2261 27.7584 14.678 27.7132 14.6128C27.5693 14.4065 27.619 14.1222 27.8249 13.9779C28.031 13.8336 28.3144 13.8825 28.4593 14.0879C28.5189 14.172 29.8994 16.1708 28.7539 18.1613C28.6704 18.308 28.5163 18.3901 28.3582 18.39Z" fill="#4D7B7D"/>
<path d="M28.3582 18.39L28.3588 17.39H28.3582V18.39ZM28.1314 18.3292L28.6323 17.4637L28.6306 17.4627L28.1314 18.3292ZM27.9635 17.7062L28.8298 18.2057L28.8302 18.2049L27.9635 17.7062ZM27.7132 14.6128L28.5354 14.0436L28.5335 14.0408L27.7132 14.6128ZM27.8249 13.9779L27.2512 13.1589L27.2509 13.1591L27.8249 13.9779ZM28.4593 14.0879L27.6422 14.6644L27.6432 14.6658L28.4593 14.0879ZM28.7539 18.1613L27.8872 17.6625L27.885 17.6663L28.7539 18.1613ZM28.3582 17.39C28.4497 17.39 28.5451 17.4132 28.6323 17.4637L27.6304 19.1947C27.8603 19.3277 28.1127 19.39 28.3582 19.39V17.39ZM28.6306 17.4627C28.8893 17.6117 28.9807 17.9439 28.8298 18.2057L27.0972 17.2067C26.6944 17.9052 26.9366 18.795 27.6322 19.1957L28.6306 17.4627ZM28.8302 18.2049C29.435 17.1539 29.345 16.0957 29.1372 15.3579C28.9313 14.6266 28.5876 14.119 28.5354 14.0437L26.891 15.182C26.884 15.1719 27.0912 15.4709 27.2121 15.9C27.3311 16.3225 27.3436 16.7784 27.0967 17.2075L28.8302 18.2049ZM28.5335 14.0408C28.7033 14.2844 28.6468 14.623 28.3989 14.7968L27.2509 13.1591C26.5912 13.6214 26.4354 14.5286 26.893 15.1848L28.5335 14.0408ZM28.3986 14.797C28.1554 14.9673 27.8163 14.9111 27.6422 14.6644L29.2764 13.5113C28.8125 12.8538 27.9065 12.6998 27.2512 13.1589L28.3986 14.797ZM27.6432 14.6658C27.6383 14.6588 27.928 15.0719 28.0945 15.6756C28.258 16.2682 28.2859 16.9698 27.8872 17.6625L29.6207 18.6601C30.3674 17.3624 30.2778 16.0693 30.0225 15.1438C29.7703 14.2295 29.34 13.6011 29.2754 13.5099L27.6432 14.6658ZM27.885 17.6663C27.9883 17.485 28.1757 17.3898 28.3588 17.39L28.3575 19.39C28.857 19.3903 29.3524 19.1309 29.6228 18.6563L27.885 17.6663Z" fill="#4D7B7D" mask="url(#path-26-inside-9_5_323)"/>
<mask id="path-28-inside-10_5_323" fill="white">
<path fill-rule="evenodd" clip-rule="evenodd" d="M35.8314 18.3899C35.6735 18.3899 35.5198 18.3079 35.4358 18.1612C34.2898 16.1708 35.6711 14.1719 35.7304 14.0878C35.8756 13.8818 36.1606 13.8328 36.3665 13.9781C36.5717 14.1231 36.6208 14.4071 36.4766 14.6129C36.4302 14.6804 35.3748 16.2273 36.2263 17.7061C36.3525 17.9244 36.277 18.2034 36.0583 18.3292C35.9871 18.3703 35.909 18.3899 35.8314 18.3899Z"/>
</mask>
<path fill-rule="evenodd" clip-rule="evenodd" d="M35.8314 18.3899C35.6735 18.3899 35.5198 18.3079 35.4358 18.1612C34.2898 16.1708 35.6711 14.1719 35.7304 14.0878C35.8756 13.8818 36.1606 13.8328 36.3665 13.9781C36.5717 14.1231 36.6208 14.4071 36.4766 14.6129C36.4302 14.6804 35.3748 16.2273 36.2263 17.7061C36.3525 17.9244 36.277 18.2034 36.0583 18.3292C35.9871 18.3703 35.909 18.3899 35.8314 18.3899Z" fill="#4D7B7D"/>
<path d="M35.4358 18.1612L36.3037 17.6644L36.3025 17.6623L35.4358 18.1612ZM35.7304 14.0878L36.5476 14.6642L36.5479 14.6638L35.7304 14.0878ZM36.3665 13.9781L36.9434 13.1613L36.9432 13.1612L36.3665 13.9781ZM36.4766 14.6129L35.6575 14.0392L35.6529 14.0459L36.4766 14.6129ZM36.2263 17.7061L35.3597 18.2051L35.3605 18.2066L36.2263 17.7061ZM36.0583 18.3292L35.5599 17.4622L35.5579 17.4634L36.0583 18.3292ZM35.8314 17.3899C36.0154 17.3899 36.2014 17.4858 36.3037 17.6644L34.568 18.6581C34.8382 19.1301 35.3315 19.3899 35.8314 19.3899V17.3899ZM36.3025 17.6623C35.9037 16.9696 35.9316 16.2682 36.0951 15.6757C36.2616 15.0722 36.5513 14.659 36.5476 14.6642L34.9133 13.5114C34.8503 13.6007 34.4196 14.229 34.1672 15.1436C33.9117 16.0692 33.822 17.3624 34.5692 18.6602L36.3025 17.6623ZM36.5479 14.6638C36.3742 14.9103 36.0345 14.9679 35.7897 14.795L36.9432 13.1612C36.2866 12.6976 35.377 12.8533 34.913 13.5118L36.5479 14.6638ZM35.7895 14.7949C35.5436 14.6212 35.4867 14.2832 35.6575 14.0392L37.2956 15.1866C37.7549 14.531 37.5998 13.625 36.9434 13.1613L35.7895 14.7949ZM35.6529 14.0459C35.6018 14.1201 35.2579 14.6279 35.0521 15.3594C34.8445 16.0972 34.7549 17.1548 35.3597 18.2051L37.0929 17.2071C36.8462 16.7787 36.8585 16.3234 36.9773 15.9011C37.0362 15.6918 37.1169 15.51 37.1858 15.3773C37.2197 15.3119 37.2495 15.2608 37.2703 15.2269C37.2806 15.2101 37.2886 15.1977 37.2936 15.19C37.2961 15.1862 37.2979 15.1835 37.2989 15.182C37.2998 15.1806 37.3003 15.18 37.3003 15.1799L35.6529 14.0459ZM35.3605 18.2066C35.2088 17.9442 35.3008 17.6112 35.5599 17.4622L36.5567 19.1961C37.2533 18.7957 37.4961 17.9046 37.092 17.2057L35.3605 18.2066ZM35.5579 17.4634C35.6441 17.4135 35.7396 17.3899 35.8314 17.3899V19.3899C36.0785 19.3899 36.3301 19.3271 36.5588 19.1949L35.5579 17.4634Z" fill="#4D7B7D" mask="url(#path-28-inside-10_5_323)"/>
<path d="M25.7934 18.8275L25.7934 18.8275L25.7934 18.8275Z" fill="#4D7B7D" stroke="#4D7B7D"/>
<mask id="path-31-inside-11_5_323" fill="white">
<path fill-rule="evenodd" clip-rule="evenodd" d="M38.6063 19.4478C38.554 19.4478 38.5009 19.4388 38.4493 19.4198L35.8989 18.4847C35.6629 18.398 35.5409 18.136 35.628 17.8994C35.7146 17.6628 35.9765 17.5412 36.2133 17.6282L38.7632 18.5631C38.9999 18.6498 39.121 18.912 39.0347 19.1485C38.9667 19.3332 38.7923 19.4478 38.6063 19.4478Z"/>
</mask>
<path fill-rule="evenodd" clip-rule="evenodd" d="M38.6063 19.4478C38.554 19.4478 38.5009 19.4388 38.4493 19.4198L35.8989 18.4847C35.6629 18.398 35.5409 18.136 35.628 17.8994C35.7146 17.6628 35.9765 17.5412 36.2133 17.6282L38.7632 18.5631C38.9999 18.6498 39.121 18.912 39.0347 19.1485C38.9667 19.3332 38.7923 19.4478 38.6063 19.4478Z" fill="#4D7B7D"/>
<path d="M38.6063 19.4478L38.6065 18.4478H38.6063V19.4478ZM38.4493 19.4198L38.7957 18.4817L38.7936 18.4809L38.4493 19.4198ZM35.8989 18.4847L35.5538 19.4233L35.5547 19.4236L35.8989 18.4847ZM35.628 17.8994L36.5664 18.245L36.567 18.2433L35.628 17.8994ZM36.2133 17.6282L35.8685 18.5669L35.8691 18.5671L36.2133 17.6282ZM38.7632 18.5631L38.4189 19.502L38.4195 19.5022L38.7632 18.5631ZM39.0347 19.1485L39.9732 19.4939L39.9742 19.4912L39.0347 19.1485ZM38.6063 18.4478C38.6689 18.4478 38.7333 18.4587 38.7957 18.4817L38.1029 20.3579C38.2684 20.419 38.439 20.4478 38.6063 20.4478V18.4478ZM38.7936 18.4809L36.2431 17.5459L35.5547 19.4236L38.1051 20.3587L38.7936 18.4809ZM36.2441 17.5462C36.5239 17.6491 36.6711 17.9605 36.5664 18.245L34.6896 17.5539C34.4106 18.3115 34.8019 19.1468 35.5538 19.4233L36.2441 17.5462ZM36.567 18.2433C36.4638 18.5252 36.151 18.6707 35.8685 18.5669L36.5582 16.6896C35.8021 16.4118 34.9655 16.8005 34.689 17.5555L36.567 18.2433ZM35.8691 18.5671L38.4189 19.502L39.1074 17.6243L36.5576 16.6893L35.8691 18.5671ZM38.4195 19.5022C38.1357 19.3984 37.9932 19.0856 38.0953 18.8058L39.9742 19.4912C40.2487 18.7385 39.864 17.9012 39.1069 17.6241L38.4195 19.5022ZM38.0963 18.8031C38.1771 18.5834 38.3852 18.4478 38.6065 18.4478L38.6062 20.4478C39.1994 20.4479 39.7563 20.083 39.9732 19.4939L38.0963 18.8031Z" fill="#4D7B7D" mask="url(#path-31-inside-11_5_323)"/>
<mask id="path-33-inside-12_5_323" fill="white">
<path fill-rule="evenodd" clip-rule="evenodd" d="M41.953 40.8575H22.1659C21.9139 40.8575 21.7094 40.6534 21.7094 40.4014L21.7097 34.9216C21.7097 31.6485 24.9021 28.9856 28.826 28.9856L28.9552 28.9856C29.2071 28.9856 29.4114 29.1899 29.4114 29.4419C29.4114 29.6937 29.2071 29.8981 28.9552 29.8981L28.8261 29.8981C25.4051 29.8981 22.6218 32.1517 22.6218 34.9217L22.6221 39.9451H41.4969V34.9216C41.4969 32.1516 38.7135 29.8981 35.2925 29.8981L35.1634 29.8981C34.9118 29.8981 34.7071 29.6938 34.7071 29.4419C34.7072 29.1898 34.9115 28.9856 35.1634 28.9856L35.2925 28.9856C39.2164 28.9856 42.4092 31.6486 42.4092 34.9217L42.4093 40.4013C42.4093 40.6533 42.2048 40.8576 41.953 40.8575Z"/>
</mask>
<path fill-rule="evenodd" clip-rule="evenodd" d="M41.953 40.8575H22.1659C21.9139 40.8575 21.7094 40.6534 21.7094 40.4014L21.7097 34.9216C21.7097 31.6485 24.9021 28.9856 28.826 28.9856L28.9552 28.9856C29.2071 28.9856 29.4114 29.1899 29.4114 29.4419C29.4114 29.6937 29.2071 29.8981 28.9552 29.8981L28.8261 29.8981C25.4051 29.8981 22.6218 32.1517 22.6218 34.9217L22.6221 39.9451H41.4969V34.9216C41.4969 32.1516 38.7135 29.8981 35.2925 29.8981L35.1634 29.8981C34.9118 29.8981 34.7071 29.6938 34.7071 29.4419C34.7072 29.1898 34.9115 28.9856 35.1634 28.9856L35.2925 28.9856C39.2164 28.9856 42.4092 31.6486 42.4092 34.9217L42.4093 40.4013C42.4093 40.6533 42.2048 40.8576 41.953 40.8575Z" fill="#4D7B7D"/>
<path d="M41.953 40.8575L41.9535 39.8575H41.953V40.8575ZM21.7094 40.4014L20.7094 40.4014V40.4014H21.7094ZM21.7097 34.9216L22.7097 34.9216V34.9216H21.7097ZM28.826 28.9856V29.9856H28.8263L28.826 28.9856ZM28.9552 28.9856V27.9856L28.955 27.9856L28.9552 28.9856ZM28.9552 29.8981L28.955 30.8981H28.9552V29.8981ZM28.8261 29.8981L28.8263 28.8981H28.8261V29.8981ZM22.6218 34.9217H21.6218V34.9217L22.6218 34.9217ZM22.6221 39.9451L21.6221 39.9452L21.6222 40.9451H22.6221V39.9451ZM41.4969 39.9451V40.9451H42.4969V39.9451H41.4969ZM35.2925 29.8981L35.2923 30.8981H35.2925V29.8981ZM35.1634 29.8981L35.1636 28.8981H35.1634V29.8981ZM34.7071 29.4419L33.7071 29.4415V29.4419H34.7071ZM35.1634 28.9856V29.9856L35.1636 29.9856L35.1634 28.9856ZM35.2925 28.9856V27.9856H35.2923L35.2925 28.9856ZM42.4092 34.9217H41.4092V34.9217L42.4092 34.9217ZM42.4093 40.4013H43.4093V40.4013L42.4093 40.4013ZM41.953 39.8575H22.1659V41.8575H41.953V39.8575ZM22.1659 39.8575C22.465 39.8575 22.7094 40.1 22.7094 40.4014H20.7094C20.7094 41.2068 21.3627 41.8575 22.1659 41.8575V39.8575ZM22.7094 40.4015L22.7097 34.9216L20.7097 34.9215L20.7094 40.4014L22.7094 40.4015ZM22.7097 34.9216C22.7097 32.363 25.2769 29.9856 28.826 29.9856V27.9856C24.5274 27.9856 20.7097 30.934 20.7097 34.9216H22.7097ZM28.8263 29.9856L28.9554 29.9856L28.955 27.9856L28.8258 27.9856L28.8263 29.9856ZM28.9552 29.9856C28.6548 29.9856 28.4114 29.7421 28.4114 29.4419H30.4114C30.4114 28.6377 29.7595 27.9856 28.9552 27.9856V29.9856ZM28.4114 29.4419C28.4114 29.1415 28.6546 28.8981 28.9552 28.8981V30.8981C29.7595 30.8981 30.4114 30.2458 30.4114 29.4419H28.4114ZM28.9554 28.8981L28.8263 28.8981L28.8259 30.8981L28.955 30.8981L28.9554 28.8981ZM28.8261 28.8981C25.0604 28.8981 21.6218 31.4125 21.6218 34.9217H23.6218C23.6218 32.8908 25.7499 30.8981 28.8261 30.8981V28.8981ZM21.6218 34.9217L21.6221 39.9452L23.6221 39.945L23.6218 34.9216L21.6218 34.9217ZM22.6221 40.9451H41.4969V38.9451H22.6221V40.9451ZM42.4969 39.9451V34.9216H40.4969V39.9451H42.4969ZM42.4969 34.9216C42.4969 31.4124 39.0581 28.8981 35.2925 28.8981V30.8981C38.3688 30.8981 40.4969 32.8908 40.4969 34.9216H42.4969ZM35.2927 28.8981L35.1636 28.8981L35.1632 30.8981L35.2923 30.8981L35.2927 28.8981ZM35.1634 28.8981C35.4633 28.8981 35.7071 29.1407 35.7071 29.4419H33.7071C33.7071 30.2469 34.3603 30.8981 35.1634 30.8981V28.8981ZM35.7071 29.4422C35.707 29.7423 35.4637 29.9856 35.1634 29.9856V27.9856C34.3593 27.9856 33.7074 28.6374 33.7071 29.4415L35.7071 29.4422ZM35.1636 29.9856L35.2927 29.9856L35.2923 27.9856L35.1632 27.9856L35.1636 29.9856ZM35.2925 29.9856C38.8417 29.9856 41.4092 32.363 41.4092 34.9217H43.4092C43.4092 30.9341 39.5912 27.9856 35.2925 27.9856V29.9856ZM41.4092 34.9217L41.4093 40.4013L43.4093 40.4013L43.4092 34.9217L41.4092 34.9217ZM41.4093 40.4013C41.4093 40.101 41.6527 39.8574 41.9535 39.8575L41.9526 41.8575C42.7569 41.8579 43.4093 41.2057 43.4093 40.4013H41.4093Z" fill="#4D7B7D" mask="url(#path-33-inside-12_5_323)"/>
<path d="M28.999 27.3665C28.999 27.3666 28.999 27.3666 28.999 27.3666V27.3665Z" fill="#4D7B7D" stroke="#4D7B7D"/>
<mask id="path-36-inside-13_5_323" fill="white">
<path fill-rule="evenodd" clip-rule="evenodd" d="M35.1634 29.8982C34.9118 29.8982 34.7071 29.6939 34.7071 29.442L34.7072 27.446C34.7072 27.1939 34.9115 26.9897 35.1634 26.9897C35.4154 26.9897 35.6195 27.194 35.6195 27.446L35.6196 29.4419C35.6196 29.6938 35.4152 29.8982 35.1634 29.8982Z"/>
</mask>
<path fill-rule="evenodd" clip-rule="evenodd" d="M35.1634 29.8982C34.9118 29.8982 34.7071 29.6939 34.7071 29.442L34.7072 27.446C34.7072 27.1939 34.9115 26.9897 35.1634 26.9897C35.4154 26.9897 35.6195 27.194 35.6195 27.446L35.6196 29.4419C35.6196 29.6938 35.4152 29.8982 35.1634 29.8982Z" fill="#4D7B7D"/>
<path d="M35.1634 29.8982L35.1635 28.8982H35.1634V29.8982ZM34.7071 29.442L33.7071 29.4419V29.442H34.7071ZM34.7072 27.446L35.7072 27.446V27.446H34.7072ZM35.1634 26.9897V27.9897H35.1635L35.1634 26.9897ZM35.6195 27.446H34.6195L34.6195 27.446L35.6195 27.446ZM35.6196 29.4419H36.6196V29.4419L35.6196 29.4419ZM35.1634 28.8982C35.4633 28.8982 35.7071 29.1409 35.7071 29.442H33.7071C33.7071 30.247 34.3603 30.8982 35.1634 30.8982V28.8982ZM35.7071 29.442L35.7072 27.446L33.7072 27.4459L33.7071 29.4419L35.7071 29.442ZM35.7072 27.446C35.7072 27.7465 35.4635 27.9897 35.1634 27.9897V25.9897C34.3594 25.9897 33.7072 26.6414 33.7072 27.446H35.7072ZM35.1635 27.9897C34.8627 27.9898 34.6195 27.7459 34.6195 27.446H36.6195C36.6195 26.6422 35.9681 25.9897 35.1633 25.9897L35.1635 27.9897ZM34.6195 27.446L34.6196 29.442L36.6196 29.4419L36.6195 27.4459L34.6195 27.446ZM34.6196 29.4419C34.6196 29.1416 34.8629 28.8982 35.1635 28.8982L35.1633 30.8982C35.9676 30.8983 36.6196 30.2459 36.6196 29.4419H34.6196Z" fill="#4D7B7D" mask="url(#path-36-inside-13_5_323)"/>
<path d="M32.5952 29.7463C32.595 29.744 32.5948 29.7416 32.5946 29.7392C32.5948 29.7416 32.595 29.744 32.5952 29.7463Z" fill="#4D7B7D" stroke="#4D7B7D"/>
<mask id="path-39-inside-14_5_323" fill="white">
<path fill-rule="evenodd" clip-rule="evenodd" d="M28.2861 30.8947L30.4992 32.9729L31.4106 31.7967L29.0236 30.0557L28.2861 30.8947ZM30.552 34.1051C30.4365 34.1051 30.3246 34.0612 30.2399 33.9814L27.3402 31.2576C27.1605 31.0894 27.1469 30.809 27.3093 30.6242L28.6123 29.1408C28.7684 28.9634 29.0328 28.9342 29.2237 29.0731L32.3281 31.3362C32.4278 31.4089 32.4933 31.5189 32.5108 31.641C32.5283 31.763 32.4957 31.887 32.4197 31.9845L30.9127 33.9283C30.8343 34.0299 30.7159 34.0937 30.5876 34.1037C30.5758 34.1046 30.5638 34.1051 30.552 34.1051Z"/>
</mask>
<path fill-rule="evenodd" clip-rule="evenodd" d="M28.2861 30.8947L30.4992 32.9729L31.4106 31.7967L29.0236 30.0557L28.2861 30.8947ZM30.552 34.1051C30.4365 34.1051 30.3246 34.0612 30.2399 33.9814L27.3402 31.2576C27.1605 31.0894 27.1469 30.809 27.3093 30.6242L28.6123 29.1408C28.7684 28.9634 29.0328 28.9342 29.2237 29.0731L32.3281 31.3362C32.4278 31.4089 32.4933 31.5189 32.5108 31.641C32.5283 31.763 32.4957 31.887 32.4197 31.9845L30.9127 33.9283C30.8343 34.0299 30.7159 34.0937 30.5876 34.1037C30.5758 34.1046 30.5638 34.1051 30.552 34.1051Z" fill="#4D7B7D"/>
<path d="M28.2861 30.8947L27.535 30.2345L26.8962 30.9613L27.6016 31.6237L28.2861 30.8947ZM30.4992 32.9729L29.8147 33.7019L30.6162 34.4546L31.2897 33.5854L30.4992 32.9729ZM31.4106 31.7967L32.201 32.4092L32.8316 31.5954L31.9999 30.9888L31.4106 31.7967ZM29.0236 30.0557L29.6129 29.2478L28.8753 28.7098L28.2725 29.3955L29.0236 30.0557ZM30.552 34.1051L30.5542 33.1051H30.552V34.1051ZM30.2399 33.9814L30.9253 33.2533L30.9246 33.2526L30.2399 33.9814ZM27.3402 31.2576L28.0248 30.5287L28.0238 30.5278L27.3402 31.2576ZM27.3093 30.6242L26.5579 29.9642L26.5579 29.9643L27.3093 30.6242ZM28.6123 29.1408L27.8617 28.48L27.861 28.4808L28.6123 29.1408ZM29.2237 29.0731L29.8128 28.2651L29.8121 28.2646L29.2237 29.0731ZM32.3281 31.3362L31.739 32.1443L31.7391 32.1444L32.3281 31.3362ZM32.5108 31.641L31.5208 31.7824L31.521 31.7834L32.5108 31.641ZM32.4197 31.9845L31.6312 31.3694L31.6294 31.3718L32.4197 31.9845ZM30.9127 33.9283L30.1224 33.3156L30.121 33.3173L30.9127 33.9283ZM30.5876 34.1037L30.66 35.1011L30.6659 35.1007L30.5876 34.1037ZM27.6016 31.6237L29.8147 33.7019L31.1837 32.2439L28.9706 30.1658L27.6016 31.6237ZM31.2897 33.5854L32.201 32.4092L30.6201 31.1842L29.7087 32.3604L31.2897 33.5854ZM31.9999 30.9888L29.6129 29.2478L28.4343 30.8636L30.8213 32.6046L31.9999 30.9888ZM28.2725 29.3955L27.535 30.2345L29.0372 31.5549L29.7747 30.7159L28.2725 29.3955ZM30.552 33.1051C30.6896 33.1051 30.8233 33.1573 30.9253 33.2533L29.5545 34.7096C29.826 34.9651 30.1834 35.1051 30.552 35.1051V33.1051ZM30.9246 33.2526L28.0248 30.5287L26.6555 31.9865L29.5553 34.7103L30.9246 33.2526ZM28.0238 30.5278C28.2381 30.7285 28.2545 31.0633 28.0607 31.284L26.5579 29.9643C26.0393 30.5548 26.083 31.4502 26.6565 31.9874L28.0238 30.5278ZM28.0606 31.2841L29.3636 29.8007L27.861 28.4808L26.5579 29.9642L28.0606 31.2841ZM29.3629 29.8015C29.178 30.0116 28.8622 30.0468 28.6353 29.8817L29.8121 28.2646C29.2034 27.8216 28.3588 27.9153 27.8617 28.48L29.3629 29.8015ZM28.6346 29.8812L31.739 32.1443L32.9171 30.5281L29.8128 28.2651L28.6346 29.8812ZM31.7391 32.1444C31.6181 32.0562 31.5411 31.9244 31.5208 31.7824L33.5007 31.4997C33.4456 31.1134 33.2376 30.7616 32.917 30.528L31.7391 32.1444ZM31.521 31.7834C31.5 31.6377 31.5389 31.4878 31.6312 31.3694L33.2081 32.5996C33.4526 32.2863 33.5566 31.8884 33.5006 31.4987L31.521 31.7834ZM31.6294 31.3718L30.1224 33.3156L31.703 34.541L33.21 32.5973L31.6294 31.3718ZM30.121 33.3173C30.2163 33.1939 30.3578 33.1187 30.5094 33.1068L30.6659 35.1007C31.074 35.0686 31.4522 34.8659 31.7043 34.5393L30.121 33.3173ZM30.5153 33.1064C30.5208 33.106 30.5346 33.1051 30.5542 33.1051L30.5498 35.1051C30.593 35.1052 30.6309 35.1032 30.66 35.1011L30.5153 33.1064Z" fill="#4D7B7D" mask="url(#path-39-inside-14_5_323)"/>
<mask id="path-41-inside-15_5_323" fill="white">
<path fill-rule="evenodd" clip-rule="evenodd" d="M32.7079 31.7968L33.6197 32.973L35.8328 30.8948L35.096 30.0558L32.7079 31.7968ZM33.5665 34.1052C33.5548 34.1052 33.5428 34.1048 33.5308 34.1038C33.4026 34.0936 33.2846 34.0301 33.2062 33.9285L31.6989 31.9846C31.623 31.8871 31.5903 31.7633 31.6077 31.6411C31.6255 31.5189 31.6909 31.4091 31.7907 31.3364L34.895 29.0731C35.086 28.9341 35.3503 28.9636 35.5063 29.1409L36.8094 30.6241C36.9719 30.8091 36.9581 31.0894 36.7783 31.2578L33.8788 33.9815C33.794 34.0612 33.6821 34.1052 33.5665 34.1052Z"/>
</mask>
<path fill-rule="evenodd" clip-rule="evenodd" d="M32.7079 31.7968L33.6197 32.973L35.8328 30.8948L35.096 30.0558L32.7079 31.7968ZM33.5665 34.1052C33.5548 34.1052 33.5428 34.1048 33.5308 34.1038C33.4026 34.0936 33.2846 34.0301 33.2062 33.9285L31.6989 31.9846C31.623 31.8871 31.5903 31.7633 31.6077 31.6411C31.6255 31.5189 31.6909 31.4091 31.7907 31.3364L34.895 29.0731C35.086 28.9341 35.3503 28.9636 35.5063 29.1409L36.8094 30.6241C36.9719 30.8091 36.9581 31.0894 36.7783 31.2578L33.8788 33.9815C33.794 34.0612 33.6821 34.1052 33.5665 34.1052Z" fill="#4D7B7D"/>
<path d="M32.7079 31.7968L32.1188 30.9887L31.2866 31.5955L31.9176 32.4095L32.7079 31.7968ZM33.6197 32.973L32.8294 33.5857L33.5029 34.4545L34.3043 33.702L33.6197 32.973ZM35.8328 30.8948L36.5173 31.6238L37.2224 30.9617L36.5842 30.235L35.8328 30.8948ZM35.096 30.0558L35.8474 29.396L35.2448 28.7098L34.5069 29.2477L35.096 30.0558ZM33.5665 34.1052L33.5668 33.1052H33.5665V34.1052ZM33.5308 34.1038L33.4513 35.1007L33.453 35.1008L33.5308 34.1038ZM33.2062 33.9285L33.9979 33.3177L33.9964 33.3158L33.2062 33.9285ZM31.6989 31.9846L32.4892 31.3718L32.488 31.3703L31.6989 31.9846ZM31.6077 31.6411L30.6181 31.4974L30.6177 31.5L31.6077 31.6411ZM31.7907 31.3364L32.3796 32.1446L32.3798 32.1444L31.7907 31.3364ZM34.895 29.0731L34.3067 28.2645L34.3059 28.2651L34.895 29.0731ZM35.5063 29.1409L36.2575 28.4809L36.2571 28.4804L35.5063 29.1409ZM36.8094 30.6241L36.0581 31.2841L36.0582 31.2842L36.8094 30.6241ZM36.7783 31.2578L36.0948 30.5279L36.0936 30.529L36.7783 31.2578ZM33.8788 33.9815L34.5634 34.7105L34.5635 34.7104L33.8788 33.9815ZM31.9176 32.4095L32.8294 33.5857L34.4101 32.3603L33.4983 31.1841L31.9176 32.4095ZM34.3043 33.702L36.5173 31.6238L35.1482 30.1658L32.9352 32.244L34.3043 33.702ZM36.5842 30.235L35.8474 29.396L34.3446 30.7156L35.0814 31.5547L36.5842 30.235ZM34.5069 29.2477L32.1188 30.9887L33.297 32.6048L35.6851 30.8639L34.5069 29.2477ZM33.5665 33.1052C33.5795 33.1052 33.5935 33.1057 33.6087 33.1069L33.453 35.1008C33.4921 35.1038 33.5301 35.1052 33.5665 35.1052V33.1052ZM33.6103 33.107C33.7603 33.1189 33.9021 33.1935 33.9979 33.3177L32.4144 34.5393C32.667 34.8668 33.0449 35.0682 33.4513 35.1007L33.6103 33.107ZM33.9964 33.3158L32.4892 31.3718L30.9086 32.5974L32.4159 34.5413L33.9964 33.3158ZM32.488 31.3703C32.5795 31.4879 32.6184 31.637 32.5977 31.7823L30.6177 31.5C30.5622 31.8895 30.6665 32.2863 30.9098 32.5989L32.488 31.3703ZM32.5973 31.7849C32.577 31.925 32.5006 32.0564 32.3796 32.1446L31.2019 30.5281C30.8812 30.7618 30.674 31.1128 30.6181 31.4974L32.5973 31.7849ZM32.3798 32.1444L35.4841 29.8812L34.3059 28.2651L31.2016 30.5284L32.3798 32.1444ZM35.4834 29.8817C35.2561 30.0471 34.9401 30.0113 34.7554 29.8014L36.2571 28.4804C35.7604 27.9158 34.9159 27.8212 34.3067 28.2645L35.4834 29.8817ZM34.755 29.8009L36.0581 31.2841L37.5606 29.9641L36.2575 28.4809L34.755 29.8009ZM36.0582 31.2842C35.8638 31.063 35.881 30.7281 36.0948 30.5279L37.4618 31.9878C38.0353 31.4508 38.08 30.5552 37.5606 29.9641L36.0582 31.2842ZM36.0936 30.529L33.1941 33.2527L34.5635 34.7104L37.463 31.9867L36.0936 30.529ZM33.1942 33.2526C33.2953 33.1577 33.4284 33.1052 33.5668 33.1052L33.5663 35.1052C33.9358 35.1053 34.2927 34.9647 34.5634 34.7105L33.1942 33.2526Z" fill="#4D7B7D" mask="url(#path-41-inside-15_5_323)"/>
<path d="M32.9201 32.8424L32.92 32.8425L32.9201 32.8424Z" fill="#4D7B7D" stroke="#4D7B7D"/>
<path d="M32.3136 36.2474L33.1024 40.4849C33.1483 40.7326 33.3869 40.896 33.6339 40.85L32.3136 36.2474ZM32.3136 36.2474L32.5235 35.1196L33.5076 40.4085M32.3136 36.2474L32.0592 34.8813M32.0592 34.8813L32.4942 34.9622L32.465 34.8057L32.4621 34.7898M32.0592 34.8813L31.6244 34.9622M32.0592 34.8813L31.6244 34.9622M32.4621 34.7898L32.5508 34.7898L33.5938 40.3926L33.9993 40.3179M32.4621 34.7898L31.6565 34.7898M32.4621 34.7898L32.3202 34.0271M33.9993 40.3179L33.5939 40.3934L33.5504 40.4014L33.5502 40.4015L33.5077 40.4094L33.5076 40.4085M33.9993 40.3179L32.7982 33.8631M33.9993 40.3179L32.7982 33.8631M33.5076 40.4085L33.55 40.4006L33.5503 40.4006L33.5938 40.3926C33.5888 40.3691 33.5665 40.354 33.5424 40.3584C33.5423 40.3584 33.5423 40.3584 33.5422 40.3584C33.5182 40.363 33.5034 40.3859 33.5076 40.4085ZM32.7982 33.8631L32.3497 33.9478L32.3495 33.9479L32.3491 33.9479L32.3069 33.9559M32.7982 33.8631L32.3493 33.9467L32.3488 33.9467L32.3488 33.9467L32.3067 33.9546L32.3069 33.9559M31.6565 34.7898L31.7984 34.0273M31.6565 34.7898L31.6535 34.8058L31.6244 34.9622M31.6565 34.7898L31.5677 34.7898L30.5248 40.3932L30.1194 40.3179L31.6244 34.9622M32.3202 34.0271L32.3767 33.9807C32.375 33.982 32.3721 33.9841 32.3679 33.986C32.3639 33.9879 32.3601 33.9891 32.3573 33.9897C32.3572 33.9897 32.3571 33.9897 32.357 33.9897C32.3569 33.9897 32.3569 33.9897 32.3568 33.9897C32.3329 33.9939 32.311 33.9775 32.3069 33.9559M32.3202 34.0271L32.3069 33.9559M32.3202 34.0271L32.0588 34.2419L31.7984 34.0273M31.7984 34.0273L31.8117 33.9557M31.7984 34.0273L31.7412 33.9802C31.7429 33.9816 31.746 33.9838 31.7504 33.9859C31.7541 33.9876 31.7577 33.9888 31.7607 33.9895C31.7611 33.9896 31.7614 33.9897 31.7618 33.9898C31.7621 33.9898 31.7624 33.9899 31.7628 33.9899C31.7867 33.9933 31.8077 33.9767 31.8117 33.9557M31.8117 33.9557L31.8119 33.9546L31.7706 33.9469L31.7689 33.9466L31.7687 33.9465L31.3203 33.8631L31.7682 33.9475L31.7685 33.9476L31.7704 33.9479L31.8117 33.9557ZM31.805 36.2474L31.0163 40.4849C30.9757 40.7043 30.784 40.8577 30.5686 40.8577C30.5408 40.8577 30.5123 40.8551 30.4846 40.85L31.805 36.2474Z" fill="#4D7B7D" stroke="#4D7B7D"/>
<mask id="path-45-inside-16_5_323" fill="white">
<path fill-rule="evenodd" clip-rule="evenodd" d="M8.93415 14.21C8.81688 14.21 8.70048 14.1656 8.61175 14.0766L7.88305 13.3482C7.70484 13.1699 7.70484 12.8812 7.88305 12.703C8.06126 12.5248 8.35037 12.5249 8.52777 12.703L8.93416 13.1087L10.6126 11.4302C10.7908 11.252 11.079 11.2522 11.2572 11.4304C11.4356 11.6084 11.4355 11.8974 11.2572 12.0756L9.25674 14.0763C9.16798 14.1654 9.05057 14.2101 8.93415 14.21Z"/>
</mask>
<path fill-rule="evenodd" clip-rule="evenodd" d="M8.93415 14.21C8.81688 14.21 8.70048 14.1656 8.61175 14.0766L7.88305 13.3482C7.70484 13.1699 7.70484 12.8812 7.88305 12.703C8.06126 12.5248 8.35037 12.5249 8.52777 12.703L8.93416 13.1087L10.6126 11.4302C10.7908 11.252 11.079 11.2522 11.2572 11.4304C11.4356 11.6084 11.4355 11.8974 11.2572 12.0756L9.25674 14.0763C9.16798 14.1654 9.05057 14.2101 8.93415 14.21Z" fill="#4D7B7D"/>
<path d="M8.93415 14.21L8.93527 13.21H8.93415V14.21ZM8.61175 14.0766L9.32 13.3706L9.31872 13.3693L8.61175 14.0766ZM7.88305 13.3482L7.17589 14.0552L7.17608 14.0554L7.88305 13.3482ZM7.88305 12.703L7.17604 11.9958L7.17589 11.9959L7.88305 12.703ZM8.52777 12.703L7.81927 13.4087L7.82128 13.4107L8.52777 12.703ZM8.93416 13.1087L8.22766 13.8164L8.93477 14.5223L9.64127 13.8158L8.93416 13.1087ZM10.6126 11.4302L9.90552 10.7231L9.90546 10.7231L10.6126 11.4302ZM11.2572 11.4304L10.5501 12.1375L10.5507 12.1381L11.2572 11.4304ZM11.2572 12.0756L10.5502 11.3684L10.5501 11.3685L11.2572 12.0756ZM9.25674 14.0763L8.54959 13.3693L8.54819 13.3707L9.25674 14.0763ZM8.93415 13.21C9.07028 13.21 9.21254 13.2628 9.32 13.3706L7.90351 14.7826C8.18842 15.0684 8.56347 15.21 8.93415 15.21V13.21ZM9.31872 13.3693L8.59002 12.6409L7.17608 14.0554L7.90478 14.7838L9.31872 13.3693ZM8.59021 12.6411C8.80245 12.8534 8.80245 13.1978 8.59021 13.41L7.17589 11.9959C6.60722 12.5647 6.60722 13.4865 7.17589 14.0552L8.59021 12.6411ZM8.59005 13.4102C8.37852 13.6217 8.03346 13.6237 7.81927 13.4087L9.23627 11.9973C8.66727 11.426 7.744 11.428 7.17604 11.9958L8.59005 13.4102ZM7.82128 13.4107L8.22766 13.8164L9.64065 12.4009L9.23427 11.9953L7.82128 13.4107ZM9.64127 13.8158L11.3197 12.1373L9.90546 10.7231L8.22704 12.4016L9.64127 13.8158ZM11.3196 12.1374C11.1069 12.35 10.762 12.3494 10.5501 12.1375L11.9643 10.7233C11.396 10.1549 10.4747 10.154 9.90552 10.7231L11.3196 12.1374ZM10.5507 12.1381C10.3373 11.925 10.3383 11.5803 10.5502 11.3684L11.9642 12.7828C12.5327 12.2145 12.5339 11.2918 11.9637 10.7226L10.5507 12.1381ZM10.5501 11.3685L8.54959 13.3693L9.96389 14.7834L11.9644 12.7826L10.5501 11.3685ZM8.54819 13.3707C8.65546 13.263 8.79708 13.2099 8.93527 13.21L8.93304 15.21C9.30407 15.2104 9.68051 15.0679 9.96529 14.782L8.54819 13.3707Z" fill="#4D7B7D" mask="url(#path-45-inside-16_5_323)"/>
<mask id="path-47-inside-17_5_323" fill="white">
<path fill-rule="evenodd" clip-rule="evenodd" d="M8.93415 23.9595C8.81688 23.9595 8.70048 23.9151 8.61175 23.826L7.88305 23.0977C7.70484 22.9195 7.70484 22.6307 7.88305 22.4525C8.06126 22.2743 8.35037 22.2743 8.52777 22.4525L8.93416 22.8582L10.6126 21.1797C10.7908 21.0015 11.079 21.0017 11.2572 21.1798C11.4356 21.358 11.4355 21.6469 11.2572 21.8251L9.25674 23.8259C9.16798 23.915 9.05057 23.9596 8.93415 23.9595Z"/>
</mask>
<path fill-rule="evenodd" clip-rule="evenodd" d="M8.93415 23.9595C8.81688 23.9595 8.70048 23.9151 8.61175 23.826L7.88305 23.0977C7.70484 22.9195 7.70484 22.6307 7.88305 22.4525C8.06126 22.2743 8.35037 22.2743 8.52777 22.4525L8.93416 22.8582L10.6126 21.1797C10.7908 21.0015 11.079 21.0017 11.2572 21.1798C11.4356 21.358 11.4355 21.6469 11.2572 21.8251L9.25674 23.8259C9.16798 23.915 9.05057 23.9596 8.93415 23.9595Z" fill="#4D7B7D"/>
<path d="M8.93415 23.9595L8.93482 22.9595H8.93415V23.9595ZM8.61175 23.826L9.32041 23.1204L9.31866 23.1187L8.61175 23.826ZM7.88305 23.0977L7.17594 23.8048L7.17614 23.805L7.88305 23.0977ZM7.88305 22.4525L7.1761 21.7452L7.17594 21.7454L7.88305 22.4525ZM8.52777 22.4525L7.81922 23.1581L7.82125 23.1602L8.52777 22.4525ZM8.93416 22.8582L8.22764 23.5659L8.93475 24.2718L9.64127 23.5653L8.93416 22.8582ZM10.6126 21.1797L9.90552 20.4726L9.90546 20.4726L10.6126 21.1797ZM11.2572 21.1798L10.5502 21.887L10.5506 21.8874L11.2572 21.1798ZM11.2572 21.8251L10.5502 21.1179L10.5501 21.118L11.2572 21.8251ZM9.25674 23.8259L8.54958 23.1188L8.54819 23.1202L9.25674 23.8259ZM8.93415 22.9595C9.07051 22.9595 9.21294 23.0125 9.3204 23.1204L7.9031 24.5315C8.18802 24.8177 8.56324 24.9595 8.93415 24.9595V22.9595ZM9.31866 23.1187L8.58995 22.3904L7.17614 23.805L7.90485 24.5333L9.31866 23.1187ZM8.59016 22.3906C8.80247 22.6029 8.80247 22.9473 8.59016 23.1596L7.17594 21.7454C6.60721 22.3141 6.60721 23.2361 7.17594 23.8048L8.59016 22.3906ZM8.59 23.1597C8.37861 23.371 8.03355 23.3733 7.81922 23.1581L9.23632 21.7468C8.66718 21.1753 7.74391 21.1776 7.1761 21.7452L8.59 23.1597ZM7.82125 23.1602L8.22764 23.5659L9.64067 22.1505L9.23429 21.7448L7.82125 23.1602ZM9.64127 23.5653L11.3197 21.8868L9.90546 20.4726L8.22704 22.1511L9.64127 23.5653ZM11.3196 21.8869C11.107 22.0995 10.7621 22.0989 10.5502 21.887L11.9643 20.4727C11.3959 19.9044 10.4746 19.9036 9.90552 20.4726L11.3196 21.8869ZM10.5506 21.8874C10.3374 21.6745 10.3382 21.3298 10.5502 21.1179L11.9643 22.5322C12.5327 21.9639 12.5338 21.0414 11.9639 20.4723L10.5506 21.8874ZM10.5501 21.118L8.54958 23.1188L9.9639 24.5329L11.9644 22.5321L10.5501 21.118ZM8.54819 23.1202C8.65579 23.0122 8.79743 22.9594 8.93482 22.9595L8.93349 24.9595C9.30372 24.9598 9.68018 24.8178 9.96529 24.5315L8.54819 23.1202Z" fill="#4D7B7D" mask="url(#path-47-inside-17_5_323)"/>
<path d="M8.23663 32.4933C8.23667 32.4933 8.23672 32.4934 8.23676 32.4934L8.23663 32.4933ZM8.23663 32.4933L8.20569 32.5242L8.20555 32.5244L7.88305 32.8468L8.20547 32.5243L8.20561 32.5241L8.23654 32.4932L8.23663 32.4933ZM10.9037 31.2208L10.9036 31.2208C10.9036 31.2208 10.9037 31.2208 10.9037 31.2208Z" fill="#4D7B7D" stroke="#4D7B7D"/>
</svg>
