<svg width="46" height="46" fill="none" xmlns="http://www.w3.org/2000/svg"><path d="M38.583 40.402Z" fill="#4D7B7D" stroke="#4D7B7D"/><mask id="a" fill="#fff"><path fill-rule="evenodd" clip-rule="evenodd" d="M25.58 40.858a.456.456 0 0 1-.457-.456v-4.264a.456.456 0 1 1 .913 0V40.4a.456.456 0 0 1-.457.457Z"/></mask><path fill-rule="evenodd" clip-rule="evenodd" d="M25.58 40.858a.456.456 0 0 1-.457-.456v-4.264a.456.456 0 1 1 .913 0V40.4a.456.456 0 0 1-.457.457Z" fill="#4D7B7D"/><path d="M25.58 40.858v-1 1Zm-.457-.456h-1 1Zm0-4.264h1-1Zm.456-.456v1-1Zm.457.456h-1 1Zm0 4.263h1-1Zm-.457-.543c.3 0 .544.242.544.544h-2c0 .805.653 1.456 1.456 1.456v-2Zm.544.544v-4.264h-2v4.264h2Zm0-4.264c0 .3-.243.544-.544.544v-2c-.804 0-1.456.651-1.456 1.456h2Zm-.544.544a.544.544 0 0 1-.543-.544h2c0-.804-.652-1.456-1.457-1.456v2Zm-.543-.544V40.4h2v-4.263h-2Zm0 4.263c0-.3.243-.544.544-.543l-.001 2c.805 0 1.457-.652 1.457-1.457h-2Z" fill="#4D7B7D" mask="url(#a)"/><mask id="b" fill="#fff"><path fill-rule="evenodd" clip-rule="evenodd" d="M22.166 39.863H3.533a.456.456 0 0 1-.456-.456V5.598c0-.252.204-.456.456-.456h26.87c.251 0 .456.204.456.456v8.557a.456.456 0 0 1-.913 0v-8.1H3.989V38.95h18.177a.456.456 0 0 1 0 .912Z"/></mask><path fill-rule="evenodd" clip-rule="evenodd" d="M22.166 39.863H3.533a.456.456 0 0 1-.456-.456V5.598c0-.252.204-.456.456-.456h26.87c.251 0 .456.204.456.456v8.557a.456.456 0 0 1-.913 0v-8.1H3.989V38.95h18.177a.456.456 0 0 1 0 .912Z" fill="#4D7B7D"/><path d="M3.077 39.407h-1 1Zm0-33.809h1-1Zm.456-.456v1-1Zm26.87 0v-1 1Zm0 9.47-.001 1v-1Zm-.457-8.557h1v-1h-1v1Zm-25.957 0v-1h-1v1h1Zm0 32.896h-1v1h1v-1Zm18.633.456h-1v.002l1-.002Zm-.456-.544H3.533v2h18.633v-2Zm-18.633 0c.3 0 .544.243.544.544h-2c0 .805.653 1.456 1.456 1.456v-2Zm.544.544V5.598h-2v33.81h2Zm0-33.809c0 .3-.243.544-.544.544v-2c-.804 0-1.456.652-1.456 1.456h2Zm-.544.544h26.87v-2H3.532v2Zm26.87 0a.544.544 0 0 1-.544-.544h2c0-.804-.652-1.456-1.457-1.456v2Zm-.544-.544v8.557h2V5.598h-2Zm0 8.557c0-.3.243-.543.543-.543v2c.805 0 1.456-.652 1.456-1.457h-2Zm.544-.543c.3 0 .543.243.543.543h-2c0 .804.651 1.456 1.456 1.457v-2Zm.543.543v-8.1h-2v8.1h2Zm-1-9.1H3.989v2h25.957v-2Zm-26.957 1V38.95h2V6.055h-2Zm1 33.896h18.177v-2H3.989v2Zm18.177 0a.544.544 0 0 1-.544-.544h2c0-.803-.651-1.456-1.456-1.456v2Zm-.544-.543c0-.302.244-.545.544-.545v2c.803 0 1.457-.651 1.456-1.457l-2 .002Z" fill="#4D7B7D" mask="url(#b)"/><mask id="c" fill="#fff"><path fill-rule="evenodd" clip-rule="evenodd" d="M6.881 15.165h5.379v-4.824H6.881v4.825Zm5.835.913H6.425a.456.456 0 0 1-.456-.456V9.885c0-.252.204-.456.456-.456h6.291c.252 0 .457.204.457.456v5.737a.456.456 0 0 1-.457.456Z"/></mask><path fill-rule="evenodd" clip-rule="evenodd" d="M6.881 15.165h5.379v-4.824H6.881v4.825Zm5.835.913H6.425a.456.456 0 0 1-.456-.456V9.885c0-.252.204-.456.456-.456h6.291c.252 0 .457.204.457.456v5.737a.456.456 0 0 1-.457.456Z" fill="#4D7B7D"/><path d="M6.881 15.165h-1v1h1v-1Zm5.379 0v1h1v-1h-1Zm0-4.824h1v-1h-1v1Zm-5.379 0v-1h-1v1h1Zm-.912 5.28h-1 1Zm0-5.736h1-1Zm.456-.456v1-1Zm6.291 0v-1 1Zm-5.835 6.737h5.379v-2H6.881v2Zm6.379-1V10.34h-2v4.825h2Zm-1-5.825H6.881v2h5.379v-2Zm-6.379 1v4.825h2V10.34h-2Zm6.835 4.737H6.425v2h6.291v-2Zm-6.291 0c.3 0 .544.243.544.544h-2c0 .805.653 1.456 1.456 1.456v-2Zm.544.544V9.885h-2v5.737h2Zm0-5.737c0 .3-.244.544-.544.544v-2c-.804 0-1.456.652-1.456 1.456h2Zm-.544.544h6.291v-2H6.425v2Zm6.291 0a.544.544 0 0 1-.543-.544h2c0-.804-.652-1.456-1.457-1.456v2Zm-.543-.544v5.737h2V9.885h-2Zm0 5.737c0-.3.243-.544.543-.544v2c.804 0 1.457-.652 1.457-1.456h-2Z" fill="#4D7B7D" mask="url(#c)"/><mask id="d" fill="#fff"><path fill-rule="evenodd" clip-rule="evenodd" d="M27.013 11.817h-11.23a.455.455 0 1 1 0-.912h11.23a.456.456 0 0 1 0 .912Z"/></mask><path fill-rule="evenodd" clip-rule="evenodd" d="M27.013 11.817h-11.23a.455.455 0 1 1 0-.912h11.23a.456.456 0 0 1 0 .912Z" fill="#4D7B7D"/><path d="M15.328 11.36h-1 1Zm.455-.455v1-1Zm11.23 0v-1 1Zm.456.456h-1v.001l1-.001Zm-.456-.544h-11.23v2h11.23v-2Zm-11.23 0c.302 0 .545.245.545.544h-2c0 .803.65 1.456 1.455 1.456v-2Zm.545.544a.544.544 0 0 1-.545.544v-2c-.806 0-1.455.654-1.455 1.455l2 .001Zm-.545.544h11.23v-2h-11.23v2Zm11.23 0a.544.544 0 0 1-.544-.544h2c0-.804-.651-1.456-1.456-1.456v2Zm-.544-.543c0-.302.245-.545.544-.545v2c.804 0 1.457-.651 1.456-1.457l-2 .002Z" fill="#4D7B7D" mask="url(#d)"/><path d="M18.69 14.19h.001Z" fill="#4D7B7D" stroke="#4D7B7D"/><mask id="e" fill="#fff"><path fill-rule="evenodd" clip-rule="evenodd" d="M6.881 24.915h5.379V20.09H6.881v4.824Zm5.835.912H6.425a.456.456 0 0 1-.456-.456v-5.736c0-.253.204-.457.456-.457h6.291c.252 0 .457.204.457.456v5.737a.456.456 0 0 1-.457.456Z"/></mask><path fill-rule="evenodd" clip-rule="evenodd" d="M6.881 24.915h5.379V20.09H6.881v4.824Zm5.835.912H6.425a.456.456 0 0 1-.456-.456v-5.736c0-.253.204-.457.456-.457h6.291c.252 0 .457.204.457.456v5.737a.456.456 0 0 1-.457.456Z" fill="#4D7B7D"/><path d="M6.881 24.915h-1v1h1v-1Zm5.379 0v1h1v-1h-1Zm0-4.824h1v-1h-1v1Zm-5.379 0v-1h-1v1h1Zm5.835 5.736v-1 1Zm-6.747-.456h-1 1Zm0-5.736h1-1Zm.456-.457v1-1Zm6.291 0v-1 1Zm-5.835 6.737h5.379v-2H6.881v2Zm6.379-1V20.09h-2v4.824h2Zm-1-5.824H6.881v2h5.379v-2Zm-6.379 1v4.824h2V20.09h-2Zm6.835 4.736H6.425v2h6.291v-2Zm-6.291 0c.3 0 .544.243.544.544h-2c0 .805.653 1.456 1.456 1.456v-2Zm.544.544v-5.736h-2v5.736h2Zm0-5.736c0 .3-.244.543-.544.543v-2c-.804 0-1.456.652-1.456 1.456h2Zm-.544.543h6.291v-2H6.425v2Zm6.291 0a.544.544 0 0 1-.543-.544h2c0-.804-.652-1.456-1.457-1.456v2Zm-.543-.544v5.737h2v-5.736h-2Zm0 5.737c0-.3.243-.544.544-.544l-.001 2c.805 0 1.457-.652 1.457-1.456h-2Z" fill="#4D7B7D" mask="url(#e)"/><mask id="f" fill="#fff"><path fill-rule="evenodd" clip-rule="evenodd" d="M26.744 21.566h-10.96a.456.456 0 0 1-.001-.912h10.961a.456.456 0 0 1 0 .912Z"/></mask><path fill-rule="evenodd" clip-rule="evenodd" d="M26.744 21.566h-10.96a.456.456 0 0 1-.001-.912h10.961a.456.456 0 0 1 0 .912Z" fill="#4D7B7D"/><path d="M15.328 21.11h-1 1Zm11.873 0h-1 1Zm-.457-.544h-10.96v2h10.96v-2Zm-10.96 0c.301 0 .544.246.544.544h-2c0 .802.649 1.456 1.455 1.456v-2Zm.544.544a.544.544 0 0 1-.545.544v-2c-.807 0-1.455.654-1.455 1.456h2Zm-.545.544h10.961v-2H15.783v2Zm10.961 0a.544.544 0 0 1-.543-.544h2c0-.804-.652-1.456-1.457-1.456v2Zm-.543-.544c0-.3.243-.544.543-.544v2c.805 0 1.457-.652 1.457-1.456h-2Z" fill="#4D7B7D" mask="url(#f)"/><path d="M18.69 23.94h.001Z" fill="#4D7B7D" stroke="#4D7B7D"/><mask id="g" fill="#fff"><path fill-rule="evenodd" clip-rule="evenodd" d="M6.881 34.664h5.379V29.84H6.881v4.824Zm5.835.913H6.425a.456.456 0 0 1-.456-.457v-5.736c0-.252.204-.456.456-.456h6.291c.252 0 .457.204.457.456v5.736a.456.456 0 0 1-.457.457Z"/></mask><path fill-rule="evenodd" clip-rule="evenodd" d="M6.881 34.664h5.379V29.84H6.881v4.824Zm5.835.913H6.425a.456.456 0 0 1-.456-.457v-5.736c0-.252.204-.456.456-.456h6.291c.252 0 .457.204.457.456v5.736a.456.456 0 0 1-.457.457Z" fill="#4D7B7D"/><path d="M6.881 34.664h-1v1h1v-1Zm5.379 0v1h1v-1h-1Zm0-4.824h1v-1h-1v1Zm-5.379 0v-1h-1v1h1Zm5.835 5.737v-1 1ZM5.97 35.12h-1 1Zm0-5.736h1-1Zm.456-.456v1-1Zm6.291 0v-1 1Zm-5.835 6.736h5.379v-2h-5.38v2Zm6.379-1V29.84h-2v4.824h2Zm-1-5.824h-5.38v2h5.379v-2Zm-6.379 1v4.824h2V29.84h-2Zm6.835 4.737H6.425v2h6.291v-2Zm-6.291 0c.3 0 .544.242.544.543h-2c0 .806.653 1.457 1.456 1.457v-2Zm.544.544v-5.737h-2v5.736h2Zm0-5.737c0 .3-.244.544-.544.544v-2c-.804 0-1.456.651-1.456 1.456h2Zm-.544.544h6.291v-2H6.425v2Zm6.291 0a.544.544 0 0 1-.543-.544h2c0-.804-.652-1.456-1.457-1.456v2Zm-.543-.544v5.736h2v-5.736h-2Zm0 5.736c0-.3.243-.543.544-.543l-.001 2c.805 0 1.457-.653 1.457-1.457h-2Z" fill="#4D7B7D" mask="url(#g)"/><path d="M22.02 30.816v.043-.044Zm0 0Zm-6.237.087Zm2.907 2.786h.001Zm3.852-.619Zm19.034 0ZM25.491 16.923c0 .094.001.188.006.28.072 1.413.772 2.632 1.08 3.104.06.093.105.157.128.188h10.78c.022-.03.068-.095.128-.188.307-.47 1.008-1.69 1.08-3.104.004-.093.006-.186.005-.28a6.568 6.568 0 0 1-1.093-.629c-.501-.358-1.102-.902-1.43-1.636a2.867 2.867 0 0 1-.102-.26 7.224 7.224 0 0 1-1.887-.098l.017-.087a6.97 6.97 0 0 0 1.577.115l.317-.012h.02l.012.027.409-.132M25.49 16.923l1.151 3.646-.324.244m-.827-3.89c.042-.019.123-.055.233-.11.21-.107.526-.282.862-.522.5-.359 1.101-.903 1.43-1.633.037-.084.071-.17.101-.26l-2.626 2.525Zm11.047-2.712-.409.132.126.28c.5 1.114 1.68 1.826 2.25 2.112l.25.126.16-.39m-2.377-2.26c.47 1.463 2.358 2.253 2.377 2.26m-2.377-2.26a.456.456 0 0 0-.483-.314c-.033.003-3.304.324-3.506-1.557m6.366 4.132-.16.389.042.02v.012l-.017.315c-.074 1.444-.8 2.692-1.094 3.147l-.14.214.325.244m1.044-4.341c.168.069.28.232.282.414.037 2.095-1.27 3.853-1.326 3.927m0 0-.325-.244-.008.013H26.651l-.008-.012-.325.243m11.553 0a.456.456 0 0 1-.364.182H26.683a.457.457 0 0 1-.365-.182m0 0c-.055-.074-1.362-1.832-1.326-3.927a.457.457 0 0 1 .282-.414m7.275-4.132a.457.457 0 0 0-.908 0m.908 0-.454.049-.454-.049m.908 0-.45.05h-.009l-.449-.05m0 0c-.202 1.879-3.467 1.561-3.506 1.557a.455.455 0 0 0-.483.314c-.468 1.455-2.358 2.253-2.378 2.26m0 0 .158.391 4.555-2.65a6.97 6.97 0 0 1-1.577.116l-.316-.012h-.021l-.012.026-.126.28c-.5 1.115-1.68 1.827-2.25 2.113l-.25.125-.16-.388Zm6.753-3.599c.026-.072.05-.147.068-.225.019.079.041.154.069.226l-.07-.09-.067.09Zm.068-.482.043.005a.043.043 0 0 1-.043.038.043.043 0 0 1-.043-.038l.043-.005Z" fill="#4D7B7D" stroke="#4D7B7D"/><mask id="h" fill="#fff"><path fill-rule="evenodd" clip-rule="evenodd" d="M32.095 24.766c-1.538 0-2.99-.422-4.088-1.187-1.148-.8-1.78-1.88-1.78-3.04a.456.456 0 0 1 .912 0c0 1.827 2.223 3.314 4.956 3.314 2.733 0 4.956-1.487 4.956-3.315a.456.456 0 0 1 .912 0c0 1.161-.633 2.241-1.78 3.041-1.099.765-2.55 1.187-4.088 1.187Z"/></mask><path fill-rule="evenodd" clip-rule="evenodd" d="M32.095 24.766c-1.538 0-2.99-.422-4.088-1.187-1.148-.8-1.78-1.88-1.78-3.04a.456.456 0 0 1 .912 0c0 1.827 2.223 3.314 4.956 3.314 2.733 0 4.956-1.487 4.956-3.315a.456.456 0 0 1 .912 0c0 1.161-.633 2.241-1.78 3.041-1.099.765-2.55 1.187-4.088 1.187Z" fill="#4D7B7D"/><path d="M32.095 24.766v-1 1Zm-4.088-1.187.572-.82-.572.82Zm-1.78-3.04-1-.001h1Zm.912 0h-1 1Zm4.956 3.314v1-1Zm4.956-3.315h-1 1Zm.912 0h-1 1Zm-1.78 3.041.571.82-.571-.82Zm-4.088.187c-1.365 0-2.61-.376-3.516-1.007l-1.144 1.64c1.29.9 2.95 1.367 4.66 1.367v-2Zm-3.516-1.007c-.943-.657-1.352-1.456-1.352-2.22h-2c0 1.557.854 2.917 2.208 3.86l1.144-1.64Zm-1.352-2.22c0 .3-.243.543-.544.543v-2c-.805 0-1.456.652-1.456 1.456l2 .001Zm-.544.543a.544.544 0 0 1-.544-.544h2c0-.803-.651-1.456-1.456-1.456v2Zm-.544-.543c0 1.351.822 2.454 1.897 3.173 1.083.725 2.521 1.141 4.059 1.141v-2c-1.195 0-2.235-.327-2.947-.803-.719-.481-1.009-1.035-1.009-1.512h-2Zm5.956 4.314c1.538 0 2.976-.416 4.059-1.14 1.075-.72 1.897-1.823 1.897-3.175h-2c0 .477-.29 1.03-1.01 1.512-.711.476-1.75.803-2.946.803v2Zm5.956-4.314a.544.544 0 0 1-.544.543v-2c-.805 0-1.455.653-1.456 1.456l2 .002Zm-.544.543a.544.544 0 0 1-.544-.544h2c0-.803-.65-1.456-1.456-1.456v2Zm-.544-.543c0 .763-.41 1.563-1.352 2.22l1.144 1.64c1.352-.942 2.209-2.303 2.208-3.86h-2Zm-1.352 2.22c-.906.631-2.15 1.007-3.516 1.007v2c1.711 0 3.37-.468 4.66-1.366l-1.144-1.641Z" fill="#4D7B7D" mask="url(#h)"/><path d="M32.065 17.82a.459.459 0 0 0-.168.045l-.367.176m.535-.22-.49-.356a.46.46 0 0 1 .01.173l-.055.403m.535-.22-.04.288-.01-.001h-.001l-.484-.067m0 0-.211-.438" fill="#4D7B7D" stroke="#4D7B7D"/><mask id="i" fill="#fff"><path fill-rule="evenodd" clip-rule="evenodd" d="M28.358 18.39a.456.456 0 0 1-.395-.684c.852-1.48-.205-3.028-.25-3.093a.457.457 0 0 1 .746-.525c.06.084 1.44 2.083.295 4.073a.454.454 0 0 1-.396.229Z"/></mask><path fill-rule="evenodd" clip-rule="evenodd" d="M28.358 18.39a.456.456 0 0 1-.395-.684c.852-1.48-.205-3.028-.25-3.093a.457.457 0 0 1 .746-.525c.06.084 1.44 2.083.295 4.073a.454.454 0 0 1-.396.229Z" fill="#4D7B7D"/><path d="M28.358 18.39v-1 1Zm-.227-.06.501-.866-.001-.001-.5.866Zm-.168-.624.867.5v-.001l-.866-.499Zm-.25-3.093.822-.57-.002-.002-.82.572Zm.112-.635-.574-.82v.001l.574.819Zm.634.11-.817.576.001.002.816-.578Zm.295 4.073-.867-.498-.002.003.869.495Zm-.396-.771a.54.54 0 0 1 .274.074l-1.002 1.73c.23.134.483.196.728.196v-2Zm.273.073c.258.149.35.48.199.743l-1.733-1a1.456 1.456 0 0 0 .535 1.99l.999-1.733Zm.2.742c.604-1.051.514-2.11.306-2.847a4.64 4.64 0 0 0-.602-1.314l-1.644 1.138c-.007-.01.2.289.321.718.12.423.132.878-.115 1.307l1.733.998Zm-.297-4.164a.544.544 0 0 1-.135.756l-1.148-1.638a1.456 1.456 0 0 0-.358 2.026l1.64-1.144Zm-.135.756a.544.544 0 0 1-.757-.133l1.634-1.153a1.456 1.456 0 0 0-2.025-.352l1.148 1.638Zm-.756-.131c-.005-.007.285.406.451 1.01.164.592.192 1.294-.207 1.987l1.734.997c.746-1.298.657-2.59.402-3.516a5.562 5.562 0 0 0-.748-1.634l-1.632 1.156Zm.242 3a.546.546 0 0 1 .474-.276l-.002 2c.5 0 .995-.26 1.266-.734l-1.738-.99Z" fill="#4D7B7D" mask="url(#i)"/><mask id="j" fill="#fff"><path fill-rule="evenodd" clip-rule="evenodd" d="M35.831 18.39a.455.455 0 0 1-.395-.229c-1.146-1.99.235-3.99.294-4.073a.456.456 0 0 1 .747.525c-.047.067-1.102 1.614-.25 3.093a.456.456 0 0 1-.396.684Z"/></mask><path fill-rule="evenodd" clip-rule="evenodd" d="M35.831 18.39a.455.455 0 0 1-.395-.229c-1.146-1.99.235-3.99.294-4.073a.456.456 0 0 1 .747.525c-.047.067-1.102 1.614-.25 3.093a.456.456 0 0 1-.396.684Z" fill="#4D7B7D"/><path d="m35.436 18.161.868-.497-.002-.002-.866.5Zm.294-4.073.818.576-.818-.576Zm.637-.11.576-.817-.576.817Zm.11.635-.82-.574-.004.007.824.567Zm-.25 3.093-.867.5.866-.5Zm-.169.623-.498-.867-.002.001.5.866Zm-.227-.94c.184 0 .37.097.473.275l-1.736.994c.27.472.764.732 1.263.732v-2Zm.471.273c-.398-.692-.37-1.394-.207-1.986.167-.604.456-1.017.453-1.012l-1.635-1.153a5.57 5.57 0 0 0-.746 1.633c-.255.925-.345 2.218.402 3.516l1.733-.998Zm.246-2.998a.544.544 0 0 1-.758.131l1.153-1.634a1.456 1.456 0 0 0-2.03.35l1.635 1.153Zm-.759.13a.543.543 0 0 1-.132-.755l1.639 1.148a1.457 1.457 0 0 0-.353-2.026l-1.154 1.634Zm-.136-.748a4.652 4.652 0 0 0-.6 1.313c-.209.738-.298 1.796.307 2.846l1.733-.998c-.247-.428-.235-.884-.116-1.306a2.8 2.8 0 0 1 .322-.719l.001-.002-1.647-1.134Zm-.292 4.16a.544.544 0 0 1 .199-.744l.997 1.734c.696-.4.94-1.291.535-1.99l-1.731 1Zm.197-.743a.548.548 0 0 1 .273-.073v2c.247 0 .5-.063.728-.195l-1.001-1.732Z" fill="#4D7B7D" mask="url(#j)"/><path d="M25.793 18.828Z" fill="#4D7B7D" stroke="#4D7B7D"/><mask id="k" fill="#fff"><path fill-rule="evenodd" clip-rule="evenodd" d="M38.606 19.448a.454.454 0 0 1-.157-.028l-2.55-.935a.456.456 0 0 1 .314-.857l2.55.935a.457.457 0 0 1-.157.885Z"/></mask><path fill-rule="evenodd" clip-rule="evenodd" d="M38.606 19.448a.454.454 0 0 1-.157-.028l-2.55-.935a.456.456 0 0 1 .314-.857l2.55.935a.457.457 0 0 1-.157.885Z" fill="#4D7B7D"/><path d="M38.606 19.448v-1 1Zm-.157-.028.347-.938-.002-.001-.345.939Zm-2.55-.935-.345.938.345-.938Zm-.271-.586.938.346.001-.002-.939-.344Zm.585-.27-.345.938h.001l.344-.939Zm2.55.934-.344.939.344-.939Zm.272.585.938.346.001-.003-.94-.343Zm-.429-.7a.53.53 0 0 1 .19.034l-.693 1.876c.165.061.336.09.503.09v-2Zm.188.033-2.55-.935-.69 1.878 2.551.935.689-1.878Zm-2.55-.935c.28.103.427.415.322.699l-1.876-.691a1.456 1.456 0 0 0 .864 1.87l.69-1.878Zm.323.697a.544.544 0 0 1-.699.324l.69-1.877a1.456 1.456 0 0 0-1.869.865l1.878.688Zm-.698.324 2.55.935.688-1.878-2.55-.935-.688 1.878Zm2.55.935a.543.543 0 0 1-.324-.696l1.88.685a1.457 1.457 0 0 0-.868-1.867l-.688 1.878Zm-.323-.699a.543.543 0 0 1 .51-.355v2c.593 0 1.15-.365 1.367-.954l-1.877-.69Z" fill="#4D7B7D" mask="url(#k)"/><mask id="l" fill="#fff"><path fill-rule="evenodd" clip-rule="evenodd" d="M41.953 40.858H22.166a.456.456 0 0 1-.457-.457v-5.48c0-3.273 3.193-5.935 7.117-5.935h.13a.456.456 0 0 1 0 .912h-.13c-3.42 0-6.204 2.254-6.204 5.024v5.023h18.875v-5.023c0-2.77-2.783-5.024-6.205-5.024h-.129a.457.457 0 0 1 0-.912h.13c3.923 0 7.116 2.663 7.116 5.936v5.48a.456.456 0 0 1-.456.456Z"/></mask><path fill-rule="evenodd" clip-rule="evenodd" d="M41.953 40.858H22.166a.456.456 0 0 1-.457-.457v-5.48c0-3.273 3.193-5.935 7.117-5.935h.13a.456.456 0 0 1 0 .912h-.13c-3.42 0-6.204 2.254-6.204 5.024v5.023h18.875v-5.023c0-2.77-2.783-5.024-6.205-5.024h-.129a.457.457 0 0 1 0-.912h.13c3.923 0 7.116 2.663 7.116 5.936v5.48a.456.456 0 0 1-.456.456Z" fill="#4D7B7D"/><path d="M41.953 40.858v-1 1ZM21.709 40.4h-1 1Zm0-5.48h1-1Zm7.117-5.935v1-1Zm.13 0v-1h-.001v1Zm0 .912-.001 1v-1Zm-.13 0v-1 1Zm-6.204 5.024h-1 1Zm0 5.023h-1v1h1v-1Zm18.875 0v1h1v-1h-1Zm-6.205-10.047v1-1Zm-.129 0v-1 1Zm-.456-.456h-1 1Zm.456-.456v1-1Zm.13 0v-1 1Zm7.116 5.936h-1 1Zm0 5.48h1-1Zm-.456-.544H22.166v2h19.787v-2Zm-19.787 0c.299 0 .543.242.543.543h-2c0 .806.654 1.456 1.457 1.456v-2Zm.543.544v-5.48h-2v5.48h2Zm0-5.48c0-2.559 2.568-4.936 6.117-4.936v-2c-4.299 0-8.116 2.948-8.116 6.936h2Zm6.117-4.936h.13l-.001-2h-.13l.001 2Zm.13 0a.544.544 0 0 1-.545-.544h2c0-.804-.652-1.456-1.456-1.456v2Zm-.545-.544c0-.3.244-.544.544-.544v2c.805 0 1.456-.652 1.456-1.456h-2Zm.544-.544h-.129v2h.129v-2Zm-.129 0c-3.766 0-7.204 2.515-7.204 6.024h2c0-2.031 2.128-4.024 5.204-4.024v-2Zm-7.204 6.024v5.023h2v-5.023h-2Zm1 6.023h18.875v-2H22.622v2Zm19.875-1v-5.023h-2v5.023h2Zm0-5.023c0-3.51-3.439-6.024-7.205-6.024v2c3.077 0 5.205 1.993 5.205 4.024h2Zm-7.204-6.024h-.13v2h.13v-2Zm-.13 0c.3 0 .544.243.544.544h-2c0 .805.653 1.456 1.456 1.456v-2Zm.544.544c0 .3-.243.544-.544.544v-2c-.804 0-1.456.651-1.456 1.456h2Zm-.543.544h.129v-2h-.13v2Zm.128 0c3.55 0 6.117 2.377 6.117 4.936h2c0-3.988-3.818-6.936-8.117-6.936v2Zm6.117 4.936v5.48h2v-5.48h-2Zm0 5.48c0-.301.244-.545.544-.544v2c.804 0 1.456-.652 1.456-1.457h-2Z" fill="#4D7B7D" mask="url(#l)"/><path d="M28.999 27.366Z" fill="#4D7B7D" stroke="#4D7B7D"/><mask id="m" fill="#fff"><path fill-rule="evenodd" clip-rule="evenodd" d="M35.163 29.898a.457.457 0 0 1-.456-.456v-1.996a.456.456 0 1 1 .913 0v1.996a.456.456 0 0 1-.457.456Z"/></mask><path fill-rule="evenodd" clip-rule="evenodd" d="M35.163 29.898a.457.457 0 0 1-.456-.456v-1.996a.456.456 0 1 1 .913 0v1.996a.456.456 0 0 1-.457.456Z" fill="#4D7B7D"/><path d="M35.163 29.898v-1 1Zm-.456-.456h-1 1Zm0-1.996h1-1Zm.456-.456v1-1Zm.457.456h-1 1Zm0 1.996h1-1Zm-.457-.544c.3 0 .544.243.544.544h-2c0 .805.653 1.456 1.456 1.456v-2Zm.544.544v-1.996h-2v1.996h2Zm0-1.996c0 .3-.243.544-.544.544v-2c-.804 0-1.456.651-1.456 1.456h2Zm-.544.544a.544.544 0 0 1-.543-.544h2c0-.804-.652-1.456-1.457-1.456v2Zm-.543-.544v1.996h2v-1.996h-2Zm0 1.996c0-.3.243-.544.544-.544v2c.804 0 1.456-.652 1.456-1.456h-2Z" fill="#4D7B7D" mask="url(#m)"/><path d="M32.595 29.746v-.007.007Z" fill="#4D7B7D" stroke="#4D7B7D"/><mask id="n" fill="#fff"><path fill-rule="evenodd" clip-rule="evenodd" d="m28.286 30.895 2.213 2.078.912-1.176-2.387-1.741-.738.839Zm2.266 3.21a.455.455 0 0 1-.312-.124l-2.9-2.723a.456.456 0 0 1-.03-.634l1.302-1.483a.456.456 0 0 1 .612-.068l3.104 2.263a.457.457 0 0 1 .092.649l-1.507 1.943a.456.456 0 0 1-.361.177Z"/></mask><path fill-rule="evenodd" clip-rule="evenodd" d="m28.286 30.895 2.213 2.078.912-1.176-2.387-1.741-.738.839Zm2.266 3.21a.455.455 0 0 1-.312-.124l-2.9-2.723a.456.456 0 0 1-.03-.634l1.302-1.483a.456.456 0 0 1 .612-.068l3.104 2.263a.457.457 0 0 1 .092.649l-1.507 1.943a.456.456 0 0 1-.361.177Z" fill="#4D7B7D"/><path d="m28.286 30.895-.751-.66-.639.726.706.663.684-.73Zm2.213 2.078-.684.729.801.753.674-.87-.79-.612Zm.912-1.176.79.612.63-.814L32 30.99l-.59.808Zm-2.387-1.741.589-.808-.738-.538-.602.685.75.66Zm1.528 4.05.002-1h-.002v1Zm-.312-.125.685-.728-.685.728Zm-2.9-2.723.685-.73h-.001l-.684.73Zm-.03-.634-.752-.66.751.66Zm1.302-1.483-.75-.661h-.001l.751.66Zm.612-.068.589-.808-.59.808Zm3.104 2.263-.589.808.59-.808Zm.183.305-.99.141v.001l.99-.142Zm-.091.344-.789-.616-.002.003.79.613Zm-1.507 1.943-.79-.612-.002.001.792.611Zm-.325.176.072.997h.006l-.078-.997Zm-2.986-2.48 2.213 2.078 1.369-1.458-2.213-2.078-1.37 1.458Zm3.688 1.961.911-1.176-1.58-1.225-.912 1.176 1.58 1.225ZM32 30.99l-2.387-1.741-1.179 1.616 2.387 1.74L32 30.99Zm-3.727-1.594-.738.84 1.502 1.32.738-.84-1.502-1.32Zm2.279 3.71c.138 0 .271.052.373.148l-1.37 1.457c.271.255.628.395.997.395v-2Zm.373.148-2.9-2.724-1.37 1.457 2.9 2.724 1.37-1.457Zm-2.901-2.725c.214.2.23.535.037.756l-1.503-1.32a1.456 1.456 0 0 0 .099 2.023l1.367-1.46Zm.037.756 1.303-1.483-1.503-1.32-1.303 1.483 1.503 1.32Zm1.302-1.482a.544.544 0 0 1-.728.08l1.177-1.617a1.456 1.456 0 0 0-1.95.215l1.5 1.322Zm-.728.08 3.104 2.262 1.178-1.616-3.104-2.263-1.178 1.616Zm3.104 2.262a.544.544 0 0 1-.218-.362l1.98-.282a1.456 1.456 0 0 0-.584-.972l-1.178 1.616Zm-.218-.36a.547.547 0 0 1 .11-.415l1.577 1.23c.245-.313.349-.71.293-1.1l-1.98.284Zm.108-.412-1.507 1.944 1.581 1.225 1.507-1.944-1.58-1.225Zm-1.508 1.945a.544.544 0 0 1 .388-.21l.157 1.994a1.456 1.456 0 0 0 1.038-.562l-1.583-1.222Zm.394-.21.04-.002-.005 2c.043 0 .08-.002.11-.004l-.145-1.995Z" fill="#4D7B7D" mask="url(#n)"/><mask id="o" fill="#fff"><path fill-rule="evenodd" clip-rule="evenodd" d="m32.708 31.797.912 1.176 2.213-2.078-.737-.84-2.388 1.742Zm.858 2.308-.035-.001a.455.455 0 0 1-.325-.175L31.7 31.985a.454.454 0 0 1 .092-.649l3.104-2.263a.456.456 0 0 1 .611.068l1.303 1.483a.456.456 0 0 1-.03.634l-2.9 2.723a.456.456 0 0 1-.313.124Z"/></mask><path fill-rule="evenodd" clip-rule="evenodd" d="m32.708 31.797.912 1.176 2.213-2.078-.737-.84-2.388 1.742Zm.858 2.308-.035-.001a.455.455 0 0 1-.325-.175L31.7 31.985a.454.454 0 0 1 .092-.649l3.104-2.263a.456.456 0 0 1 .611.068l1.303 1.483a.456.456 0 0 1-.03.634l-2.9 2.723a.456.456 0 0 1-.313.124Z" fill="#4D7B7D"/><path d="m32.708 31.797-.59-.808-.831.607.63.814.79-.613Zm.912 1.176-.79.613.673.869.801-.753-.684-.729Zm2.213-2.078.684.729.705-.662-.638-.727-.751.66Zm-.737-.84.751-.659-.602-.686-.738.538.589.808Zm-1.53 4.05v-1 1Zm-.035-.001-.08.997h.002l.078-.997Zm-.325-.175.792-.611-.002-.002-.79.612ZM31.7 31.985l.79-.613-.001-.002-.79.615Zm-.091-.344-.99-.144v.003l.99.141Zm.183-.305.589.809-.59-.809Zm3.104-2.263-.588-.808h-.001l.589.808Zm.611.068.752-.66-.752.66Zm1.303 1.483-.75.66.75-.66Zm-.03.634-.684-.73-.001.001.684.729Zm-2.9 2.723.684.73-.684-.73Zm-1.961-1.572.911 1.177 1.581-1.226-.912-1.176-1.58 1.226Zm2.386 1.293 2.213-2.078-1.369-1.458-2.213 2.078 1.37 1.458Zm2.28-3.467-.737-.839-1.502 1.32.736.839 1.503-1.32Zm-2.077-.987-2.388 1.74 1.178 1.617 2.388-1.741-1.178-1.616Zm-.94 3.857c.013 0 .026 0 .042.002l-.156 1.994c.04.003.077.004.113.004v-2Zm.043.002a.55.55 0 0 1 .388.21l-1.584 1.222c.253.328.63.53 1.037.562l.16-1.994Zm.386.209-1.507-1.944-1.58 1.225 1.507 1.944 1.58-1.225Zm-1.508-1.946c.092.118.13.267.11.412l-1.98-.282c-.056.39.049.786.292 1.099l1.578-1.229Zm.11.415a.542.542 0 0 1-.218.36l-1.178-1.617c-.32.234-.528.585-.584.97l1.98.287Zm-.218.36 3.104-2.264-1.178-1.616-3.104 2.263 1.178 1.616Zm3.103-2.263a.544.544 0 0 1-.728-.08l1.502-1.322a1.456 1.456 0 0 0-1.95-.215l1.176 1.617Zm-.728-.081 1.303 1.483 1.503-1.32-1.303-1.483-1.503 1.32Zm1.303 1.483a.544.544 0 0 1 .037-.756l1.367 1.46a1.456 1.456 0 0 0 .099-2.024l-1.503 1.32Zm.036-.755-2.9 2.724 1.37 1.457 2.899-2.723-1.37-1.458Zm-2.9 2.724a.544.544 0 0 1 .373-.148v2c.369 0 .726-.14.996-.394l-1.369-1.458Z" fill="#4D7B7D" mask="url(#o)"/><path d="M32.92 32.842Zm-.606 3.405.788 4.238a.456.456 0 0 0 .532.365l-1.32-4.603Zm0 0 .21-1.127.984 5.288m-1.194-4.16-.255-1.367m0 0 .435.081-.029-.156-.003-.016m-.403.091-.435.081m.435-.08-.435.08m.838-.172h.089l1.043 5.603.405-.075m-1.537-5.528h-.806m.806 0-.142-.763m1.68 6.29-.406.076-.044.008-.042.008m.491-.091-1.2-6.455m1.2 6.455-1.2-6.455m.709 6.545.042-.007.044-.008a.044.044 0 0 0-.052-.035.043.043 0 0 0-.034.05Zm-.71-6.545-.448.085-.043.008m.491-.093-.449.084-.042.008m-.65.835.141-.763m-.141.763-.003.016-.03.156m.033-.172h-.09l-1.042 5.603-.406-.075 1.505-5.356m.696-.935.057-.046a.05.05 0 0 1-.02.009.043.043 0 0 1-.05-.034m.013.071-.013-.071m.013.071-.261.215-.26-.215m0 0 .013-.071m-.014.071-.057-.047a.046.046 0 0 0 .02.01h.002a.044.044 0 0 0 .049-.034m0 0v-.001l-.041-.008h-.002l-.449-.084.448.084h.002l.042.009Zm-.007 2.291-.789 4.238a.456.456 0 0 1-.531.365l1.32-4.603Z" fill="#4D7B7D" stroke="#4D7B7D"/><mask id="p" fill="#fff"><path fill-rule="evenodd" clip-rule="evenodd" d="M8.934 14.21a.453.453 0 0 1-.322-.133l-.729-.729a.456.456 0 0 1 .645-.645l.406.406 1.679-1.679a.455.455 0 1 1 .644.646l-2 2a.454.454 0 0 1-.323.134Z"/></mask><path fill-rule="evenodd" clip-rule="evenodd" d="M8.934 14.21a.453.453 0 0 1-.322-.133l-.729-.729a.456.456 0 0 1 .645-.645l.406.406 1.679-1.679a.455.455 0 1 1 .644.646l-2 2a.454.454 0 0 1-.323.134Z" fill="#4D7B7D"/><path d="m8.934 14.21.001-1v1Zm-.322-.133.708-.706-.001-.002-.707.708Zm-.729-.729-.707.707.707-.707Zm0-.645-.707-.707.707.707Zm.645 0-.709.706.002.002.707-.708Zm.406.406-.706.707.707.706.706-.706-.707-.707Zm1.679-1.679-.707-.707.707.707Zm.644 0-.707.707v.001l.707-.708Zm0 .646-.707-.708.707.708Zm-2 2-.707-.707-.002.002.709.705Zm-.323-.866a.55.55 0 0 1 .386.16l-1.416 1.413c.284.285.66.427 1.03.427v-2Zm.385.16-.729-.73-1.414 1.415.729.729 1.414-1.415Zm-.729-.729a.544.544 0 0 1 0 .769l-1.414-1.414a1.456 1.456 0 0 0 0 2.06L8.59 12.64Zm0 .77a.544.544 0 0 1-.77-.002l1.416-1.412a1.456 1.456 0 0 0-2.06-.001L8.59 13.41Zm-.769 0 .407.405 1.413-1.415-.407-.406-1.413 1.416Zm1.82.405 1.679-1.679-1.415-1.414-1.678 1.679 1.414 1.414Zm1.679-1.679a.545.545 0 0 1-.77 0l1.414-1.414a1.455 1.455 0 0 0-2.058 0l1.414 1.414Zm-.77.001a.544.544 0 0 1 0-.77l1.414 1.415a1.456 1.456 0 0 0 0-2.06l-1.413 1.415Zm0-.77-2 2.001 1.414 1.414 2-2-1.414-1.415Zm-2.002 2.003a.546.546 0 0 1 .387-.161l-.002 2c.371 0 .748-.142 1.032-.428l-1.417-1.411Z" fill="#4D7B7D" mask="url(#p)"/><mask id="q" fill="#fff"><path fill-rule="evenodd" clip-rule="evenodd" d="M8.934 23.96a.453.453 0 0 1-.322-.134l-.729-.728a.456.456 0 0 1 .645-.645l.406.405 1.679-1.678a.456.456 0 1 1 .644.645l-2 2a.454.454 0 0 1-.323.134Z"/></mask><path fill-rule="evenodd" clip-rule="evenodd" d="M8.934 23.96a.453.453 0 0 1-.322-.134l-.729-.728a.456.456 0 0 1 .645-.645l.406.405 1.679-1.678a.456.456 0 1 1 .644.645l-2 2a.454.454 0 0 1-.323.134Z" fill="#4D7B7D"/><path d="M8.934 23.96v-1 1Zm-.322-.134.708-.706-.001-.001-.707.707Zm-.729-.728-.707.707.707-.707Zm0-.645-.707-.708.707.707Zm.645 0-.709.705.002.002.707-.707Zm.406.405-.706.708.707.706.706-.707-.707-.707Zm1.679-1.678-.707-.707.707.707Zm.644 0-.707.707.707-.707Zm0 .645-.707-.707.707.707Zm-2 2-.707-.706-.002.001.709.706Zm-.323-.866c.137 0 .279.053.386.161l-1.417 1.412c.285.286.66.427 1.031.427v-2Zm.385.16-.73-.729-1.413 1.415.729.728 1.414-1.414Zm-.729-.728a.544.544 0 0 1 0 .769l-1.414-1.415a1.456 1.456 0 0 0 0 2.06L8.59 22.39Zm0 .769a.544.544 0 0 1-.77-.002l1.416-1.411a1.456 1.456 0 0 0-2.06-.002L8.59 23.16Zm-.769 0 .407.406L9.64 22.15l-.407-.406-1.413 1.415Zm1.82.405 1.679-1.678-1.415-1.414-1.678 1.678 1.414 1.414Zm1.679-1.678a.544.544 0 0 1-.77 0l1.414-1.414a1.456 1.456 0 0 0-2.058 0l1.414 1.414Zm-.77 0a.544.544 0 0 1 0-.77l1.414 1.415c.569-.568.57-1.49 0-2.06l-1.413 1.415Zm0-.769-2 2 1.414 1.415 2-2-1.414-1.415ZM8.548 23.12a.546.546 0 0 1 .387-.16l-.002 2c.37 0 .747-.142 1.032-.428L8.548 23.12Z" fill="#4D7B7D" mask="url(#q)"/><path d="M8.237 32.493Zm0 0-.031.031-.323.323.322-.323.032-.03Zm2.667-1.272Z" fill="#4D7B7D" stroke="#4D7B7D"/></svg>