<svg width="50" height="51" fill="none" xmlns="http://www.w3.org/2000/svg"><path d="M13.281 44.25H11.72v1.563h1.562V44.25Z" fill="#4D7B7D"/><path d="M29.688 34.875H16.405V23.156a.781.781 0 0 0-.781-.781H1.562a.781.781 0 0 0-.78.781v25a.781.781 0 0 0 .78.782h28.125a.781.781 0 0 0 .782-.782v-12.5a.781.781 0 0 0-.782-.781Zm-8.594 1.563h3.125v3.124h-3.125v-3.124ZM7.03 23.938h3.125v3.125H7.031v-3.125Zm-4.687 0h3.125v3.906a.781.781 0 0 0 .781.781h4.688a.781.781 0 0 0 .78-.781v-3.907h3.126v10.938h-12.5V23.937Zm4.687 12.5h3.125v3.124H7.031v-3.124Zm-4.687 0h3.125v3.906a.781.781 0 0 0 .781.781h4.688a.781.781 0 0 0 .78-.781v-3.907h3.126v10.938h-12.5V36.437Zm26.562 10.937h-12.5V36.437h3.125v3.907a.781.781 0 0 0 .782.781H25a.781.781 0 0 0 .781-.781v-3.907h3.125v10.938Z" fill="#4D7B7D"/><path d="M27.344 44.25H25.78v1.563h1.563V44.25Zm-14.063-12.5H11.72v1.563h1.562V31.75Z" fill="#4D7B7D"/><path d="M46.692 11.416a.775.775 0 0 0 .573-.083.784.784 0 0 0 .391-.695V7.531a.781.781 0 0 0-.598-.76L24.402 1.304a.778.778 0 0 0-.367 0L1.38 6.772a.781.781 0 0 0-.598.76v3.102a.782.782 0 0 0 .964.782l1.38-.333v9.73h1.562V10.706L24.22 5.99l19.531 4.715v36.669h-4.688V16.906a.782.782 0 0 0-.78-.781H10.155a.781.781 0 0 0-.781.781v3.125a.781.781 0 0 0 .781.782H37.5v1.562H17.969v1.563H37.5V25.5H17.969v1.563H37.5v1.562H17.969v1.563H37.5v17.187h-5.469v1.563h15.625v-1.563h-2.343V11.083l1.379.333ZM10.937 19.25v-1.563H37.5v1.563H10.937ZM24.22 4.406a.776.776 0 0 0-.184.022L2.344 9.664V8.147l21.875-5.28 21.875 5.28v1.517L24.402 4.428a.775.775 0 0 0-.183-.022Z" fill="#4D7B7D"/><path d="M25.781 13.781a2.344 2.344 0 1 0 0-4.687h-3.125a2.343 2.343 0 1 0 0 4.687h3.125Zm-3.906-2.344a.782.782 0 0 1 .781-.78h3.125a.781.781 0 0 1 0 1.562h-3.125a.782.782 0 0 1-.781-.781Z" fill="#4D7B7D"/></svg>